<svg width="442" height="788" viewBox="0 0 442 788" fill="none" xmlns="http://www.w3.org/2000/svg">
<g clip-path="url(#clip0)">
<path d="M267.053 257.017L85.0702 303.881C78.8972 305.463 72.3485 304.532 66.8611 301.292C61.3736 298.052 57.3954 292.767 55.7993 286.598L0.762827 72.8701C-0.819378 66.697 0.111661 60.1483 3.3517 54.6607C6.59173 49.1732 11.8762 45.1949 18.0456 43.5987L187.351 0L230.685 19.3996L284.336 227.746C285.918 233.919 284.987 240.468 281.747 245.955C278.507 251.443 273.223 255.421 267.053 257.017V257.017Z" fill="#F2F2F2"/>
<path d="M19.7704 50.2997C15.3769 51.4364 11.6138 54.2694 9.30648 58.1772C6.99917 62.085 6.33616 66.7485 7.4629 71.1445L62.4993 284.872C63.636 289.265 66.4689 293.029 70.3767 295.336C74.2844 297.643 78.9478 298.306 83.3438 297.18L265.327 250.316C269.72 249.179 273.483 246.347 275.791 242.439C278.098 238.531 278.761 233.867 277.634 229.471L224.815 24.3534L186.732 7.30457L19.7704 50.2997Z" fill="white"/>
<path d="M230.222 20.5022L202.058 27.7549C200.002 28.2844 197.82 27.9754 195.991 26.8959C194.163 25.8164 192.838 24.0548 192.309 21.9987L186.952 1.19664C186.929 1.10557 186.932 1.00973 186.96 0.92012C186.989 0.830507 187.042 0.750749 187.114 0.689988C187.185 0.629228 187.273 0.589925 187.366 0.57659C187.459 0.563254 187.554 0.576423 187.64 0.614589L230.3 19.5604C230.395 19.6025 230.475 19.6732 230.528 19.7626C230.581 19.8519 230.605 19.9556 230.596 20.0591C230.587 20.1626 230.547 20.2609 230.48 20.3403C230.413 20.4197 230.323 20.4763 230.222 20.5022V20.5022Z" fill="#F2F2F2"/>
<path d="M215.405 203.021L132.551 224.357C132.042 224.488 131.512 224.518 130.992 224.444C130.471 224.37 129.97 224.195 129.518 223.928C129.065 223.66 128.669 223.307 128.354 222.886C128.038 222.466 127.808 221.988 127.676 221.479C127.545 220.97 127.516 220.44 127.59 219.92C127.663 219.399 127.839 218.898 128.106 218.446C128.373 217.993 128.727 217.598 129.147 217.282C129.567 216.966 130.046 216.736 130.555 216.605L213.409 195.268C213.918 195.137 214.448 195.108 214.968 195.181C215.489 195.255 215.99 195.431 216.442 195.698C216.895 195.965 217.29 196.319 217.606 196.739C217.922 197.159 218.152 197.637 218.283 198.146C218.414 198.655 218.444 199.185 218.37 199.706C218.296 200.226 218.121 200.727 217.854 201.18C217.587 201.632 217.233 202.028 216.813 202.344C216.392 202.66 215.914 202.89 215.405 203.021Z" fill="#CCCCCC"/>
<path d="M234.764 211.986L135.92 237.44C134.892 237.704 133.801 237.55 132.887 237.01C131.972 236.47 131.31 235.59 131.045 234.561C130.781 233.533 130.935 232.442 131.475 231.528C132.015 230.614 132.895 229.952 133.923 229.687L232.767 204.233C233.795 203.97 234.885 204.125 235.799 204.665C236.712 205.204 237.374 206.085 237.638 207.112C237.903 208.14 237.749 209.23 237.21 210.144C236.671 211.058 235.791 211.72 234.764 211.986V211.986Z" fill="#CCCCCC"/>
<path d="M98.7344 250.054C106.548 250.054 112.882 243.72 112.882 235.907C112.882 228.094 106.548 221.76 98.7344 221.76C90.9211 221.76 84.5872 228.094 84.5872 235.907C84.5872 243.72 90.9211 250.054 98.7344 250.054Z" fill="#E6E6E6"/>
<path d="M206.595 165.996L96.5564 194.322C93.3763 195.137 90.0028 194.657 87.1761 192.987C84.3493 191.318 82.3002 188.596 81.4782 185.417L58.4182 95.833C57.6034 92.6528 58.0833 89.2793 59.7527 86.4525C61.4221 83.6257 64.1445 81.5766 67.3228 80.7546L177.362 52.4285C180.542 51.6136 183.915 52.0936 186.742 53.763C189.569 55.4324 191.618 58.1549 192.44 61.3332L215.5 150.917C216.315 154.098 215.835 157.471 214.165 160.298C212.496 163.125 209.774 165.174 206.595 165.996Z" fill="white"/>
<path d="M206.595 165.996L96.5564 194.322C93.3763 195.137 90.0028 194.657 87.1761 192.987C84.3493 191.318 82.3002 188.596 81.4782 185.417L58.4182 95.833C57.6034 92.6528 58.0833 89.2793 59.7527 86.4525C61.4221 83.6257 64.1445 81.5766 67.3228 80.7546L177.362 52.4285C180.542 51.6136 183.915 52.0936 186.742 53.763C189.569 55.4324 191.618 58.1549 192.44 61.3332L215.5 150.917C216.315 154.098 215.835 157.471 214.165 160.298C212.496 163.125 209.774 165.174 206.595 165.996ZM67.686 82.1654C64.8816 82.8907 62.4795 84.6987 61.0065 87.1929C59.5335 89.6872 59.11 92.6638 59.829 95.4699L82.889 185.054C83.6143 187.858 85.4223 190.261 87.9165 191.734C90.4107 193.207 93.3873 193.63 96.1933 192.911L206.232 164.585C209.037 163.86 211.439 162.052 212.912 159.557C214.385 157.063 214.808 154.087 214.089 151.281L191.029 61.6964C190.304 58.892 188.496 56.4897 186.002 55.0168C183.507 53.5438 180.531 53.1203 177.725 53.8392L67.686 82.1654Z" fill="#E6E6E6"/>
<path d="M171.779 82.5503L116.244 96.8462C115.759 96.9817 115.24 96.9279 114.793 96.6955C114.345 96.4631 114.003 96.0696 113.834 95.5944C113.756 95.3462 113.729 95.0846 113.755 94.8256C113.781 94.5666 113.86 94.3157 113.986 94.0881C114.113 93.8605 114.284 93.661 114.49 93.5018C114.696 93.3426 114.932 93.227 115.184 93.1621L171.715 78.6099C173.999 79.767 173.398 82.1336 171.779 82.5505L171.779 82.5503Z" fill="#F2F2F2"/>
<path d="M174.287 92.2915L118.752 106.587C118.266 106.723 117.747 106.669 117.3 106.437C116.853 106.204 116.51 105.811 116.342 105.336C116.264 105.087 116.237 104.826 116.263 104.567C116.289 104.308 116.368 104.057 116.494 103.829C116.62 103.602 116.791 103.402 116.997 103.243C117.203 103.084 117.439 102.968 117.692 102.903L174.223 88.3511C176.506 89.5082 175.906 91.8748 174.286 92.2917L174.287 92.2915Z" fill="#F2F2F2"/>
<path d="M108.174 115.224L91.2252 119.587C90.6716 119.729 90.0844 119.646 89.5924 119.355C89.1003 119.065 88.7437 118.591 88.6007 118.037L83.4521 98.0361C83.3102 97.4826 83.3937 96.8954 83.6843 96.4033C83.9749 95.9113 84.4488 95.5546 85.002 95.4116L101.951 91.0486C102.504 90.9069 103.091 90.9905 103.583 91.2811C104.075 91.5716 104.432 92.0454 104.575 92.5986L109.724 112.6C109.866 113.153 109.782 113.741 109.492 114.233C109.201 114.725 108.727 115.081 108.174 115.224V115.224Z" fill="#E6E6E6"/>
<path d="M179.26 112.279L94.5028 134.097C94.0172 134.232 93.4984 134.179 93.051 133.946C92.6037 133.714 92.2613 133.32 92.093 132.845C92.0146 132.597 91.9877 132.335 92.0138 132.076C92.0399 131.817 92.1185 131.566 92.2448 131.339C92.3711 131.111 92.5424 130.912 92.7483 130.753C92.9543 130.593 93.1905 130.478 93.4425 130.413L179.196 108.338C181.48 109.495 180.879 111.862 179.26 112.279L179.26 112.279Z" fill="#F2F2F2"/>
<path d="M181.768 122.023L97.0111 143.841C96.5256 143.977 96.0067 143.923 95.5594 143.69C95.112 143.458 94.7696 143.064 94.6013 142.589C94.5229 142.341 94.496 142.079 94.5221 141.82C94.5482 141.561 94.6268 141.311 94.7531 141.083C94.8794 140.855 95.0507 140.656 95.2566 140.497C95.4626 140.337 95.6988 140.222 95.9508 140.157L181.705 118.082C183.988 119.239 183.387 121.606 181.768 122.023V122.023Z" fill="#F2F2F2"/>
<path d="M184.274 131.761L99.5177 153.579C99.0322 153.714 98.5133 153.66 98.0659 153.428C97.6186 153.196 97.2762 152.802 97.1079 152.327C97.0295 152.079 97.0026 151.817 97.0287 151.558C97.0548 151.299 97.1334 151.048 97.2597 150.821C97.386 150.593 97.5573 150.394 97.7632 150.234C97.9692 150.075 98.2054 149.96 98.4574 149.895L184.211 127.82C186.495 128.977 185.894 131.344 184.274 131.761V131.761Z" fill="#F2F2F2"/>
<path d="M186.783 141.504L102.026 163.322C101.54 163.458 101.021 163.404 100.574 163.172C100.127 162.939 99.7842 162.546 99.6159 162.071C99.5376 161.822 99.5107 161.561 99.5368 161.302C99.5629 161.043 99.6414 160.792 99.7677 160.564C99.894 160.337 100.065 160.137 100.271 159.978C100.477 159.819 100.713 159.703 100.965 159.638L186.719 137.564C189.003 138.721 188.402 141.088 186.783 141.504L186.783 141.504Z" fill="#F2F2F2"/>
<path d="M189.289 151.243L104.533 173.061C104.047 173.196 103.528 173.143 103.081 172.91C102.633 172.678 102.291 172.284 102.123 171.809C102.044 171.561 102.017 171.299 102.044 171.04C102.07 170.781 102.148 170.53 102.275 170.303C102.401 170.075 102.572 169.876 102.778 169.717C102.984 169.557 103.22 169.442 103.472 169.377L189.226 147.302C191.51 148.459 190.909 150.826 189.289 151.243V151.243Z" fill="#F2F2F2"/>
<path d="M99.7782 240.866C99.4701 240.946 99.1444 240.924 98.8502 240.802L98.832 240.795L94.978 239.161C94.7991 239.085 94.6369 238.975 94.5007 238.836C94.3645 238.698 94.2569 238.534 94.1841 238.354C94.1113 238.174 94.0747 237.981 94.0765 237.787C94.0782 237.593 94.1182 237.401 94.1942 237.222C94.2702 237.043 94.3807 236.881 94.5194 236.745C94.6581 236.609 94.8222 236.502 95.0024 236.429C95.1826 236.357 95.3753 236.321 95.5695 236.323C95.7637 236.325 95.9556 236.365 96.1342 236.441L98.6316 237.504L101.904 229.805C101.98 229.627 102.09 229.465 102.229 229.329C102.367 229.193 102.531 229.086 102.711 229.013C102.891 228.941 103.083 228.904 103.277 228.906C103.471 228.908 103.663 228.948 103.841 229.024L103.842 229.024L103.822 229.074L103.842 229.024C104.203 229.177 104.487 229.468 104.634 229.831C104.78 230.194 104.776 230.601 104.623 230.961L100.773 240.013C100.684 240.222 100.548 240.407 100.376 240.555C100.203 240.702 99.999 240.808 99.779 240.864L99.7782 240.866Z" fill="white"/>
<path d="M336.854 338.463H148.934C142.561 338.456 136.452 335.921 131.946 331.415C127.44 326.909 124.905 320.799 124.898 314.427V93.7266C124.905 87.3539 127.44 81.2442 131.946 76.7381C136.452 72.2319 142.561 69.6971 148.934 69.6899H323.763L360.89 99.2833V314.427C360.883 320.799 358.348 326.909 353.842 331.415C349.336 335.921 343.227 338.456 336.854 338.463V338.463Z" fill="#E6E6E6"/>
<path d="M148.934 76.6096C144.396 76.6147 140.045 78.4198 136.836 81.6287C133.627 84.8377 131.822 89.1885 131.817 93.7266V314.427C131.822 318.965 133.627 323.316 136.836 326.525C140.045 329.734 144.396 331.539 148.934 331.544H336.854C341.392 331.539 345.743 329.734 348.952 326.525C352.161 323.316 353.966 318.965 353.971 314.427V102.617L321.342 76.6096H148.934Z" fill="white"/>
<path d="M300.304 140.783H214.746C213.685 140.783 212.667 140.361 211.916 139.611C211.165 138.86 210.744 137.842 210.744 136.78C210.744 135.719 211.165 134.701 211.916 133.95C212.667 133.199 213.685 132.778 214.746 132.778H300.304C301.365 132.778 302.383 133.199 303.134 133.95C303.885 134.701 304.306 135.719 304.306 136.78C304.306 137.842 303.885 138.86 303.134 139.611C302.383 140.361 301.365 140.783 300.304 140.783V140.783Z" fill="#0069E4"/>
<path d="M316.815 154.293H214.746C213.686 154.291 212.669 153.869 211.919 153.118C211.17 152.368 210.749 151.35 210.749 150.29C210.749 149.229 211.17 148.212 211.919 147.461C212.669 146.711 213.686 146.289 214.746 146.287H316.815C317.341 146.286 317.862 146.389 318.348 146.59C318.834 146.791 319.276 147.086 319.649 147.458C320.021 147.829 320.316 148.271 320.518 148.757C320.719 149.243 320.823 149.764 320.823 150.29C320.823 150.816 320.719 151.337 320.518 151.823C320.316 152.309 320.021 152.75 319.649 153.122C319.276 153.494 318.834 153.789 318.348 153.989C317.862 154.19 317.341 154.293 316.815 154.293V154.293Z" fill="#0069E4"/>
<path d="M300.304 193.317H214.749C213.688 193.317 212.67 193.739 211.919 194.489C211.169 195.24 210.747 196.258 210.747 197.319C210.747 198.381 211.169 199.399 211.919 200.15C212.67 200.9 213.688 201.322 214.749 201.322H300.304C301.366 201.322 302.384 200.9 303.134 200.15C303.885 199.399 304.306 198.381 304.306 197.319C304.306 196.258 303.885 195.24 303.134 194.489C302.384 193.739 301.366 193.317 300.304 193.317V193.317Z" fill="#CCCCCC"/>
<path d="M316.816 206.828H214.749C213.688 206.828 212.67 207.25 211.919 208.001C211.169 208.751 210.747 209.769 210.747 210.831C210.747 211.892 211.169 212.91 211.919 213.661C212.67 214.412 213.688 214.833 214.749 214.833H316.816C317.878 214.833 318.896 214.412 319.646 213.661C320.397 212.91 320.819 211.892 320.819 210.831C320.819 209.769 320.397 208.751 319.646 208.001C318.896 207.25 317.878 206.828 316.816 206.828Z" fill="#CCCCCC"/>
<path d="M300.304 261.866H214.746C213.685 261.866 212.667 261.444 211.916 260.694C211.165 259.943 210.744 258.925 210.744 257.863C210.744 256.802 211.165 255.784 211.916 255.033C212.667 254.282 213.685 253.861 214.746 253.861H300.304C301.365 253.861 302.383 254.282 303.134 255.033C303.885 255.784 304.306 256.802 304.306 257.863C304.306 258.925 303.885 259.943 303.134 260.694C302.383 261.444 301.365 261.866 300.304 261.866V261.866Z" fill="#CCCCCC"/>
<path d="M316.815 275.375H214.746C213.686 275.374 212.669 274.952 211.919 274.201C211.17 273.451 210.749 272.433 210.749 271.373C210.749 270.312 211.17 269.295 211.919 268.544C212.669 267.794 213.686 267.371 214.746 267.37H316.815C317.341 267.369 317.862 267.472 318.348 267.673C318.834 267.874 319.276 268.169 319.649 268.54C320.021 268.912 320.316 269.354 320.518 269.84C320.719 270.326 320.823 270.847 320.823 271.373C320.823 271.899 320.719 272.42 320.518 272.906C320.316 273.392 320.021 273.833 319.649 274.205C319.276 274.577 318.834 274.871 318.348 275.072C317.862 275.273 317.341 275.376 316.815 275.375Z" fill="#CCCCCC"/>
<path d="M179.118 157.682C186.931 157.682 193.265 151.348 193.265 143.535C193.265 135.721 186.931 129.387 179.118 129.387C171.305 129.387 164.971 135.721 164.971 143.535C164.971 151.348 171.305 157.682 179.118 157.682Z" fill="#0069E4"/>
<path d="M177.716 148.932C177.398 148.933 177.088 148.83 176.833 148.639L176.818 148.627L173.493 146.083C173.338 145.965 173.209 145.818 173.111 145.65C173.014 145.482 172.95 145.296 172.925 145.104C172.899 144.911 172.911 144.716 172.962 144.528C173.012 144.34 173.098 144.164 173.217 144.01C173.335 143.856 173.482 143.726 173.651 143.629C173.819 143.532 174.005 143.469 174.197 143.444C174.39 143.419 174.586 143.432 174.773 143.482C174.961 143.533 175.137 143.62 175.291 143.738L177.444 145.39L182.533 138.75C182.651 138.597 182.798 138.467 182.966 138.37C183.134 138.273 183.32 138.21 183.512 138.185C183.704 138.159 183.899 138.172 184.087 138.222C184.274 138.272 184.45 138.359 184.604 138.477L184.604 138.477L184.573 138.521L184.605 138.477C184.916 138.716 185.119 139.068 185.17 139.456C185.221 139.845 185.116 140.237 184.878 140.548L178.893 148.354C178.754 148.534 178.576 148.679 178.372 148.779C178.168 148.879 177.944 148.931 177.717 148.93L177.716 148.932Z" fill="white"/>
<path d="M194.719 204.075C194.72 205.933 194.355 207.773 193.644 209.49C192.934 211.207 191.892 212.767 190.578 214.081C189.265 215.396 187.705 216.438 185.989 217.15C184.272 217.861 182.433 218.227 180.574 218.228C180.453 218.23 180.331 218.225 180.21 218.213C177.429 218.142 174.73 217.251 172.451 215.654C170.173 214.056 168.416 211.822 167.401 209.231C166.386 206.64 166.158 203.808 166.745 201.088C167.331 198.368 168.707 195.881 170.7 193.939C172.693 191.997 175.215 190.686 177.949 190.17C180.684 189.654 183.509 189.955 186.073 191.037C188.637 192.119 190.824 193.933 192.362 196.252C193.9 198.571 194.72 201.292 194.719 204.075V204.075Z" fill="#CCCCCC"/>
<path d="M179.118 278.765C186.931 278.765 193.265 272.431 193.265 264.618C193.265 256.805 186.931 250.47 179.118 250.47C171.305 250.47 164.971 256.805 164.971 264.618C164.971 272.431 171.305 278.765 179.118 278.765Z" fill="#CCCCCC"/>
<path d="M360.168 100.236H331.084C328.961 100.236 326.925 99.3922 325.424 97.8909C323.923 96.3895 323.079 94.3533 323.079 92.2301V70.7494C323.079 70.6553 323.106 70.5632 323.156 70.4835C323.206 70.4038 323.277 70.3399 323.362 70.2989C323.446 70.258 323.541 70.2417 323.634 70.252C323.728 70.2623 323.816 70.2988 323.89 70.3572L360.478 99.3431C360.56 99.4076 360.619 99.4958 360.648 99.5956C360.677 99.6953 360.674 99.8016 360.64 99.8997C360.606 99.9978 360.542 100.083 360.458 100.143C360.373 100.203 360.272 100.236 360.168 100.236Z" fill="#CCCCCC"/>
<path d="M194.719 204.075C194.72 205.933 194.355 207.773 193.644 209.49C192.934 211.207 191.892 212.767 190.578 214.081C189.265 215.396 187.705 216.438 185.989 217.15C184.272 217.861 182.432 218.227 180.574 218.227C180.453 218.23 180.331 218.225 180.21 218.213C178.383 213.654 177.678 208.723 178.156 203.835C178.634 198.946 180.28 194.245 182.956 190.126C186.247 190.691 189.233 192.4 191.385 194.952C193.538 197.505 194.719 200.736 194.719 204.075V204.075Z" fill="#0069E4"/>
<path d="M210.743 197.323C210.745 196.261 211.168 195.243 211.919 194.492C212.67 193.741 213.688 193.319 214.749 193.317H236.069C237.314 195.85 238.199 198.544 238.698 201.322H214.749C213.688 201.322 212.671 200.9 211.92 200.151C211.169 199.401 210.746 198.384 210.743 197.323V197.323Z" fill="#0069E4"/>
<path d="M239.194 206.828C239.195 209.532 238.838 212.224 238.13 214.833H214.749C213.688 214.833 212.67 214.412 211.919 213.661C211.169 212.91 210.747 211.892 210.747 210.831C210.747 209.769 211.169 208.751 211.919 208.001C212.67 207.25 213.688 206.828 214.749 206.828H239.194Z" fill="#0069E4"/>
<path d="M291.944 256.196C291.34 257.186 290.368 257.895 289.242 258.168C288.115 258.441 286.926 258.255 285.937 257.651L234.947 226.549C234.457 226.25 234.031 225.858 233.693 225.394C233.354 224.931 233.111 224.405 232.976 223.847C232.841 223.29 232.817 222.711 232.905 222.144C232.994 221.577 233.193 221.032 233.492 220.543C233.791 220.053 234.183 219.626 234.647 219.288C235.111 218.95 235.636 218.706 236.194 218.571C236.752 218.436 237.331 218.412 237.898 218.5C238.465 218.589 239.009 218.788 239.499 219.087L290.488 250.189C291.478 250.793 292.187 251.765 292.46 252.891C292.733 254.018 292.547 255.207 291.944 256.196V256.196Z" fill="#3F3D56"/>
<path d="M240.954 225.094C237.353 230.997 232.083 235.7 225.809 238.608C219.535 241.516 212.54 242.499 205.709 241.431C198.877 240.363 192.515 237.294 187.427 232.611C182.34 227.927 178.756 221.84 177.127 215.12C175.499 208.399 175.901 201.347 178.281 194.855C180.66 188.362 184.912 182.721 190.498 178.645C196.084 174.569 202.753 172.241 209.662 171.955C216.571 171.67 223.409 173.439 229.312 177.04C237.22 181.876 242.887 189.651 245.069 198.66C247.252 207.669 245.772 217.175 240.954 225.094ZM188.721 193.233C186.02 197.661 184.693 202.79 184.907 207.972C185.122 213.153 186.868 218.155 189.925 222.345C192.982 226.534 197.212 229.723 202.082 231.508C206.951 233.293 212.24 233.594 217.28 232.372C222.321 231.151 226.886 228.463 230.398 224.647C233.911 220.832 236.213 216.06 237.013 210.936C237.814 205.812 237.077 200.566 234.896 195.861C232.716 191.155 229.188 187.203 224.761 184.502C218.822 180.888 211.692 179.778 204.935 181.415C198.179 183.052 192.348 187.302 188.721 193.233V193.233Z" fill="#3F3D56"/>
<path d="M352.971 212.494C362.851 212.494 370.861 204.484 370.861 194.604C370.861 184.724 362.851 176.714 352.971 176.714C343.091 176.714 335.082 184.724 335.082 194.604C335.082 204.484 343.091 212.494 352.971 212.494Z" fill="#A0616A"/>
<path d="M351.815 294.896C351.47 293.821 351.356 292.685 351.481 291.563C351.605 290.441 351.966 289.358 352.538 288.385C353.11 287.411 353.882 286.57 354.802 285.916C355.722 285.262 356.77 284.809 357.877 284.588C358.228 284.52 358.583 284.476 358.94 284.457L377.784 254.213L360.571 237.848C359.913 237.223 359.386 236.474 359.019 235.643C358.653 234.813 358.455 233.919 358.436 233.011C358.417 232.104 358.578 231.202 358.91 230.357C359.241 229.513 359.737 228.742 360.368 228.09C361 227.438 361.754 226.918 362.587 226.559C363.421 226.2 364.317 226.01 365.224 225.999C366.132 225.988 367.032 226.158 367.874 226.497C368.715 226.837 369.481 227.339 370.128 227.977L393.894 251.411L393.942 251.47C394.677 252.588 395.032 253.914 394.954 255.251C394.876 256.587 394.369 257.862 393.509 258.888L367.105 290.116C367.184 290.366 367.25 290.621 367.302 290.878C367.523 291.985 367.507 293.126 367.256 294.227C367.005 295.328 366.524 296.363 365.845 297.265C365.166 298.167 364.304 298.916 363.316 299.461C362.327 300.007 361.234 300.337 360.109 300.431C359.882 300.451 359.656 300.461 359.43 300.461C357.737 300.454 356.088 299.912 354.721 298.913C353.353 297.913 352.336 296.508 351.815 294.896V294.896Z" fill="#A0616A"/>
<path d="M323.507 443.586L314.577 443.585L310.33 409.141L323.509 409.142L323.507 443.586Z" fill="#A0616A"/>
<path d="M325.784 452.242L296.991 452.241V451.877C296.991 450.405 297.281 448.948 297.844 447.588C298.408 446.228 299.233 444.993 300.274 443.952C301.315 442.911 302.55 442.086 303.91 441.523C305.269 440.96 306.727 440.67 308.199 440.67H308.199L325.785 440.67L325.784 452.242Z" fill="#2F2E41"/>
<path d="M412.264 431.239L404.591 435.808L383.319 408.387L394.643 401.644L412.264 431.239Z" fill="#A0616A"/>
<path d="M418.649 437.512L393.909 452.242L393.723 451.929C392.97 450.664 392.473 449.264 392.261 447.808C392.05 446.351 392.127 444.867 392.489 443.441C392.85 442.014 393.49 440.673 394.37 439.493C395.25 438.313 396.354 437.319 397.618 436.566L397.619 436.566L412.729 427.569L418.649 437.512Z" fill="#2F2E41"/>
<path d="M309.203 428.417C303.221 357.978 299.663 292.541 321.53 265.847L321.699 265.64L358.501 280.361L358.562 280.493C358.686 280.763 370.925 307.685 368.07 325.794L377.147 367.551L406.745 417.111C406.983 417.51 407.134 417.955 407.187 418.416C407.241 418.878 407.195 419.346 407.054 419.788C406.913 420.231 406.679 420.639 406.368 420.984C406.057 421.33 405.677 421.605 405.252 421.792L392.389 427.452C391.663 427.767 390.848 427.811 390.092 427.575C389.337 427.339 388.692 426.839 388.275 426.166L356.078 373.664L337.892 333.394C337.793 333.176 337.625 332.996 337.414 332.882C337.203 332.768 336.96 332.727 336.723 332.765C336.486 332.803 336.268 332.918 336.103 333.092C335.938 333.266 335.835 333.49 335.81 333.729L325.729 428.489C325.645 429.294 325.265 430.039 324.663 430.581C324.061 431.122 323.279 431.421 322.47 431.42H312.47C311.65 431.415 310.861 431.105 310.257 430.55C309.653 429.994 309.277 429.234 309.203 428.417V428.417Z" fill="#2F2E41"/>
<path d="M321.654 266.405L321.479 266.321L321.451 266.128C320.077 256.506 321.704 245.815 326.288 234.353C328.547 228.742 332.747 224.131 338.121 221.357C343.496 218.584 349.688 217.834 355.57 219.244V219.244C358.958 220.079 362.135 221.608 364.901 223.735C367.667 225.862 369.961 228.54 371.638 231.6C373.293 234.628 374.302 237.968 374.599 241.406C374.897 244.845 374.477 248.308 373.366 251.576C367.588 268.474 360.091 284.285 360.016 284.443L359.859 284.773L321.654 266.405Z" fill="#0069E4"/>
<path d="M281.502 242.439C282.388 241.739 283.412 241.235 284.507 240.958C285.601 240.682 286.742 240.64 287.854 240.836C288.966 241.031 290.024 241.459 290.959 242.092C291.894 242.725 292.685 243.548 293.28 244.507C293.466 244.812 293.632 245.129 293.774 245.457L328.703 252.517L338.003 230.663C338.358 229.828 338.875 229.071 339.525 228.437C340.174 227.803 340.942 227.304 341.785 226.969C342.629 226.633 343.53 226.468 344.437 226.483C345.345 226.498 346.24 226.693 347.072 227.056C347.904 227.419 348.655 227.943 349.283 228.598C349.911 229.253 350.403 230.026 350.731 230.872C351.059 231.718 351.215 232.621 351.192 233.528C351.169 234.435 350.966 235.329 350.596 236.157L336.968 266.626L336.93 266.691C336.14 267.771 335.022 268.568 333.743 268.963C332.464 269.358 331.092 269.33 329.83 268.883L291.334 255.087C291.127 255.249 290.912 255.399 290.689 255.538C289.729 256.133 288.655 256.518 287.536 256.668C286.417 256.818 285.278 256.731 284.196 256.41C283.113 256.09 282.11 255.545 281.253 254.81C280.396 254.075 279.704 253.167 279.222 252.146C279.123 251.94 279.035 251.732 278.956 251.521C278.369 249.932 278.3 248.198 278.757 246.567C279.214 244.936 280.175 243.491 281.502 242.439V242.439Z" fill="#A0616A"/>
<path d="M417.599 213.762C415.875 210.709 413.365 207.913 410.046 206.784C405.76 205.327 401.118 206.878 396.712 207.915C393.316 208.713 389.769 209.202 386.346 208.528C382.924 207.854 379.623 205.863 378.066 202.742C375.775 198.15 377.705 192.675 377.566 187.546C377.494 184.753 376.79 182.014 375.505 179.534C374.221 177.053 372.39 174.897 370.152 173.227C367.913 171.557 365.324 170.417 362.581 169.893C359.837 169.369 357.01 169.475 354.314 170.202C350.094 168.985 346.273 168.872 343.663 172.116C340.379 172.116 337.23 173.421 334.908 175.743C332.585 178.065 331.281 181.214 331.281 184.498H343.121C342.559 187.518 343.201 190.636 344.908 193.189C346.998 196.26 350.633 198.481 351.332 202.129C352.011 205.664 349.607 209.019 347.087 211.588C344.566 214.158 341.642 216.704 340.855 220.217C340.373 222.883 340.92 225.634 342.387 227.912C343.851 230.163 345.668 232.164 347.767 233.838C357.225 241.941 368.466 247.692 380.571 250.62C389.096 252.673 398.42 253.205 406.334 249.429C409.5 247.919 412.322 245.773 414.623 243.126C416.925 240.479 418.658 237.388 419.714 234.043C420.771 230.698 421.128 227.171 420.764 223.683C420.4 220.194 419.323 216.817 417.599 213.762V213.762Z" fill="#2F2E41"/>
<path d="M420.272 453H281.881C281.688 453 281.502 452.923 281.366 452.787C281.229 452.65 281.153 452.465 281.153 452.272C281.153 452.078 281.229 451.893 281.366 451.757C281.502 451.62 281.688 451.543 281.881 451.543H420.272C420.465 451.543 420.65 451.62 420.787 451.757C420.923 451.893 421 452.078 421 452.272C421 452.465 420.923 452.65 420.787 452.787C420.65 452.923 420.465 453 420.272 453Z" fill="#CCCCCC"/>
</g>
<g clip-path="url(#clip1)">
<path d="M336.545 753.728H152.099C145.844 753.721 139.847 751.232 135.424 746.806C131.001 742.381 128.514 736.381 128.507 730.123V513.391C128.514 507.133 131.002 501.133 135.424 496.708C139.847 492.282 145.844 489.793 152.099 489.786H323.696L360.137 518.848V730.123C360.13 736.381 357.642 742.381 353.219 746.806C348.796 751.232 342.8 753.721 336.545 753.728V753.728Z" fill="#E6E6E6"/>
<path d="M152.099 496.582C147.644 496.587 143.374 498.359 140.225 501.51C137.075 504.662 135.303 508.934 135.298 513.391V730.123C135.303 734.58 137.075 738.853 140.225 742.004C143.374 745.155 147.644 746.928 152.099 746.933H336.545C340.999 746.928 345.269 745.155 348.419 742.004C351.569 738.853 353.34 734.58 353.345 730.123V522.121L321.32 496.582H152.099Z" fill="white"/>
<path d="M298.061 559.602H174.377C173.861 559.602 173.349 559.501 172.872 559.304C172.395 559.106 171.961 558.817 171.596 558.452C171.231 558.087 170.941 557.653 170.743 557.176C170.546 556.699 170.444 556.187 170.444 555.671C170.444 555.154 170.546 554.643 170.743 554.166C170.941 553.688 171.231 553.255 171.596 552.89C171.961 552.525 172.395 552.235 172.872 552.038C173.349 551.841 173.861 551.739 174.377 551.74H298.061C299.103 551.74 300.102 552.154 300.839 552.891C301.575 553.628 301.989 554.628 301.989 555.671C301.989 556.713 301.575 557.713 300.839 558.45C300.102 559.187 299.103 559.602 298.061 559.602Z" fill="#CCCCCC"/>
<path d="M314.267 572.868H174.377C173.861 572.868 173.35 572.766 172.873 572.569C172.397 572.371 171.964 572.082 171.599 571.717C171.234 571.352 170.945 570.918 170.747 570.441C170.55 569.964 170.448 569.453 170.448 568.937C170.448 568.421 170.55 567.91 170.747 567.433C170.945 566.956 171.234 566.523 171.599 566.158C171.964 565.793 172.397 565.503 172.873 565.306C173.35 565.108 173.861 565.006 174.377 565.006H314.267C314.782 565.006 315.293 565.108 315.77 565.306C316.247 565.503 316.68 565.793 317.045 566.158C317.409 566.523 317.699 566.956 317.896 567.433C318.094 567.91 318.195 568.421 318.195 568.937C318.195 569.453 318.094 569.964 317.896 570.441C317.699 570.918 317.409 571.352 317.045 571.717C316.68 572.082 316.247 572.371 315.77 572.569C315.293 572.766 314.782 572.868 314.267 572.868Z" fill="#CCCCCC"/>
<path d="M298.061 619.055H174.377C173.861 619.055 173.349 618.954 172.872 618.757C172.395 618.559 171.961 618.27 171.596 617.905C171.231 617.54 170.941 617.106 170.743 616.629C170.546 616.152 170.444 615.64 170.444 615.124C170.444 614.607 170.546 614.096 170.743 613.619C170.941 613.141 171.231 612.708 171.596 612.343C171.961 611.978 172.395 611.688 172.872 611.491C173.349 611.294 173.861 611.193 174.377 611.193H298.061C299.103 611.193 300.102 611.607 300.839 612.344C301.575 613.082 301.989 614.081 301.989 615.124C301.989 616.166 301.575 617.166 300.839 617.903C300.102 618.641 299.103 619.055 298.061 619.055Z" fill="#D91504"/>
<path d="M314.267 632.321H174.377C173.861 632.321 173.35 632.219 172.873 632.022C172.397 631.824 171.964 631.535 171.599 631.17C171.234 630.805 170.945 630.371 170.747 629.895C170.55 629.418 170.448 628.906 170.448 628.39C170.448 627.874 170.55 627.363 170.747 626.886C170.945 626.409 171.234 625.976 171.599 625.611C171.964 625.246 172.397 624.956 172.873 624.759C173.35 624.561 173.861 624.459 174.377 624.459H314.267C314.782 624.459 315.293 624.561 315.77 624.759C316.247 624.956 316.68 625.246 317.045 625.611C317.409 625.976 317.699 626.409 317.896 626.886C318.094 627.363 318.195 627.874 318.195 628.39C318.195 628.906 318.094 629.418 317.896 629.895C317.699 630.371 317.409 630.805 317.045 631.17C316.68 631.535 316.247 631.824 315.77 632.022C315.293 632.219 314.782 632.321 314.267 632.321Z" fill="#CCCCCC"/>
<path d="M298.061 678.508H174.377C173.335 678.508 172.336 678.094 171.599 677.357C170.862 676.619 170.448 675.62 170.448 674.577C170.448 673.535 170.862 672.535 171.599 671.798C172.336 671.06 173.335 670.646 174.377 670.646H298.061C299.103 670.646 300.102 671.06 300.839 671.798C301.575 672.535 301.989 673.535 301.989 674.577C301.989 675.62 301.575 676.619 300.839 677.357C300.102 678.094 299.103 678.508 298.061 678.508Z" fill="#CCCCCC"/>
<path d="M314.267 691.774H174.377C173.861 691.775 173.349 691.674 172.872 691.476C172.395 691.279 171.961 690.99 171.596 690.624C171.231 690.259 170.941 689.826 170.743 689.349C170.546 688.871 170.444 688.36 170.444 687.843C170.444 687.327 170.546 686.815 170.743 686.338C170.941 685.861 171.231 685.427 171.596 685.062C171.961 684.697 172.395 684.408 172.872 684.211C173.349 684.013 173.861 683.912 174.377 683.913H314.267C315.308 683.913 316.308 684.327 317.045 685.064C317.781 685.801 318.195 686.801 318.195 687.843C318.195 688.886 317.781 689.886 317.045 690.623C316.308 691.36 315.308 691.774 314.267 691.774Z" fill="#CCCCCC"/>
<path d="M359.428 519.783H330.882C329.85 519.783 328.828 519.58 327.875 519.185C326.922 518.789 326.056 518.21 325.326 517.48C324.596 516.75 324.018 515.884 323.623 514.93C323.228 513.976 323.025 512.954 323.025 511.921V490.827C323.025 490.734 323.051 490.644 323.1 490.566C323.149 490.487 323.219 490.425 323.302 490.384C323.385 490.344 323.478 490.328 323.57 490.338C323.661 490.349 323.748 490.384 323.821 490.442L359.733 518.906C359.812 518.97 359.871 519.056 359.899 519.154C359.928 519.252 359.925 519.357 359.891 519.453C359.858 519.55 359.795 519.633 359.712 519.692C359.629 519.751 359.53 519.783 359.428 519.783V519.783Z" fill="#E6E6E6"/>
<path d="M180.222 508.425C180.222 519.096 177.059 529.527 171.134 538.399C165.208 547.272 156.787 554.187 146.933 558.271C137.08 562.354 126.237 563.423 115.777 561.341C105.317 559.259 95.7084 554.121 88.1669 546.575C80.6255 539.03 75.4897 529.416 73.409 518.95C71.3283 508.484 72.3962 497.636 76.4776 487.778C80.559 477.919 87.4706 469.493 96.3384 463.564C105.206 457.636 115.632 454.471 126.297 454.471C140.597 454.476 154.311 460.162 164.423 470.279C174.534 480.396 180.217 494.117 180.222 508.425V508.425Z" fill="white"/>
<path d="M151.22 517.657C150.631 552.163 99.3318 552.157 98.7478 517.655C99.3367 483.151 150.636 483.156 151.22 517.657Z" fill="#C28890"/>
<path d="M123.943 528.367L123.915 527.386C130.673 528.288 132.128 519.909 125.313 523.042L126.869 511.667L127.84 511.8L126.517 521.476C133.692 520.407 131.038 529.347 123.943 528.367Z" fill="#2F2E41"/>
<path d="M137.924 512.635H132.644V513.616H137.924V512.635Z" fill="#2F2E41"/>
<path d="M121.257 512.635H115.976V513.616H121.257V512.635Z" fill="#2F2E41"/>
<path d="M133.489 554.358C134.518 547.408 126.386 548.781 122.081 548.713C121.387 548.715 120.702 548.872 120.077 549.172C119.451 549.473 118.9 549.909 118.465 550.45C118.029 550.99 117.719 551.621 117.558 552.296C117.396 552.971 117.388 553.674 117.532 554.353C114.201 555.384 111.116 557.086 108.468 559.356C119.627 563.249 131.752 563.384 142.994 559.739C140.253 557.276 137.01 555.44 133.489 554.358V554.358Z" fill="#2F2E41"/>
<path d="M112.649 505.241C117.511 502.429 123.408 504.586 128.43 505.765C137.959 508.696 151.322 505.026 152.481 493.669C153.687 483.106 139.245 477.22 134.629 487.732L135.973 487.557C121.004 465.297 94.9641 466.142 95.1353 496.744C95.0798 497.689 96.5507 497.686 96.6057 496.743C96.0546 478.71 107.983 466.383 124.845 477.972C128.704 480.789 131.826 484.52 134.704 488.299C136.46 490.268 136.841 481.788 145.246 484.009C154.496 487.595 151.478 500.847 143.21 503.756C132.995 508.978 121.931 498.854 111.907 503.97C111.745 504.072 111.63 504.232 111.585 504.418C111.539 504.603 111.568 504.799 111.664 504.964C111.76 505.129 111.917 505.25 112.101 505.301C112.284 505.353 112.481 505.331 112.649 505.241V505.241Z" fill="#2F2E41"/>
<path d="M126.297 563.849C112.372 563.837 98.9624 558.574 88.7435 549.109C78.5246 539.644 72.2473 526.672 71.1634 512.782C70.0795 498.891 74.2687 485.102 82.8955 474.165C91.5224 463.227 103.953 455.945 117.708 453.771C131.463 451.597 145.531 454.691 157.108 462.435C168.684 470.179 176.917 482.005 180.166 495.554C183.414 509.102 181.438 523.378 174.633 535.534C167.828 547.69 156.693 556.832 143.449 561.138C137.91 562.941 132.122 563.855 126.297 563.849ZM126.297 455.943C115.921 455.941 105.777 459.019 97.1486 464.786C88.5203 470.553 81.795 478.75 77.8235 488.342C73.8519 497.933 72.8123 508.488 74.8363 518.67C76.8603 528.853 81.8569 538.206 89.1942 545.547C96.5315 552.889 105.88 557.888 116.057 559.913C126.234 561.938 136.783 560.898 146.369 556.924C155.956 552.95 164.149 546.222 169.913 537.589C175.677 528.956 178.752 518.807 178.751 508.425C178.735 494.51 173.204 481.171 163.37 471.332C153.537 461.493 140.204 455.959 126.297 455.943V455.943Z" fill="#CCCCCC"/>
<path d="M440.529 619.274C440.53 630.663 436.928 641.76 430.242 650.978C423.555 660.195 414.125 667.059 403.302 670.588C402.978 670.691 402.655 670.794 402.326 670.892C400.924 671.324 399.503 671.692 398.057 672.006C395.439 672.574 392.783 672.943 390.11 673.109C388.948 673.188 387.78 673.227 386.605 673.227C380.534 673.233 374.506 672.211 368.776 670.206C368.609 670.147 368.442 670.088 368.281 670.029C358.996 666.674 350.81 660.834 344.615 653.145C338.419 645.455 334.452 636.212 333.145 626.423C331.838 616.633 333.242 606.672 337.203 597.626C341.164 588.579 347.531 580.794 355.61 575.119C363.689 569.443 373.17 566.095 383.019 565.44C392.869 564.784 402.709 566.846 411.469 571.4C420.228 575.954 427.57 582.827 432.694 591.269C437.818 599.71 440.528 609.397 440.529 619.274V619.274Z" fill="white"/>
<path d="M385.313 655.02C399.803 655.02 411.549 643.267 411.549 628.77C411.549 614.272 399.803 602.52 385.313 602.52C370.823 602.52 359.077 614.272 359.077 628.77C359.077 643.267 370.823 655.02 385.313 655.02Z" fill="#A0616A"/>
<path d="M386.845 642.913L386.872 641.932C385.048 641.882 383.44 641.767 382.232 640.884C381.889 640.619 381.607 640.284 381.406 639.901C381.205 639.517 381.088 639.095 381.064 638.663C381.043 638.399 381.083 638.133 381.181 637.887C381.279 637.641 381.432 637.42 381.629 637.243C382.432 636.565 383.722 636.785 384.663 637.216L385.474 637.588L383.918 626.214L382.947 626.347L384.27 636.023C382.992 635.647 381.808 635.808 380.997 636.494C380.685 636.766 380.441 637.106 380.282 637.489C380.124 637.871 380.057 638.285 380.085 638.697C380.113 639.278 380.268 639.846 380.539 640.36C380.81 640.875 381.191 641.324 381.653 641.676C383.206 642.811 385.223 642.868 386.845 642.913Z" fill="#2F2E41"/>
<path d="M378.143 627.181H372.863V628.162H378.143V627.181Z" fill="#2F2E41"/>
<path d="M394.811 627.181H389.53V628.162H394.811V627.181Z" fill="#2F2E41"/>
<path d="M392.767 665.467C392.837 665.145 392.873 664.816 392.875 664.487C392.873 663.251 392.382 662.067 391.509 661.194C390.636 660.32 389.452 659.829 388.218 659.827H381.355C380.12 659.828 378.936 660.319 378.063 661.193C377.19 662.066 376.699 663.251 376.698 664.487C376.697 664.818 376.733 665.149 376.805 665.472C374.215 666.289 371.766 667.502 369.545 669.068C369.114 669.367 368.687 669.691 368.281 670.029C368.442 670.088 368.609 670.147 368.776 670.206C374.506 672.211 380.534 673.233 386.605 673.227C387.781 673.227 388.95 673.188 390.11 673.109C392.783 672.943 395.439 672.574 398.057 672.006C399.503 671.692 400.924 671.324 402.326 670.892C399.553 668.437 396.296 666.589 392.767 665.467V665.467Z" fill="#2F2E41"/>
<path d="M391.885 672.486C391.249 672.533 390.636 672.748 390.11 673.109C392.783 672.943 395.439 672.574 398.057 672.006L391.885 672.486Z" fill="#2F2E41"/>
<path d="M409.108 622.534L363.53 605.851C363.288 605.763 363.066 605.627 362.876 605.453C362.687 605.279 362.533 605.069 362.425 604.835C362.317 604.601 362.255 604.348 362.244 604.091C362.234 603.834 362.274 603.577 362.362 603.335L362.516 602.605C366.076 592.87 377.874 586.743 387.604 590.305L401.629 595.438C411.359 599 415.588 610.527 412.029 620.263L411.623 621.365C411.534 621.607 411.399 621.829 411.225 622.019C411.051 622.209 410.841 622.362 410.607 622.471C410.374 622.579 410.121 622.641 409.864 622.651C409.606 622.662 409.35 622.622 409.108 622.534V622.534Z" fill="#2F2E41"/>
<path d="M411.563 623.459C348.036 625.805 342.485 617.818 361.841 605.26L365.948 597.7L413.009 614.867L411.563 623.459Z" fill="#2F2E41"/>
<path d="M399.106 594.241C399.457 593.074 397.955 591.59 395.751 590.927C393.547 590.264 391.476 590.673 391.125 591.841C390.775 593.008 392.277 594.492 394.481 595.155C396.685 595.817 398.756 595.408 399.106 594.241Z" fill="#2F2E41"/>
<path d="M386.605 674.698C380.368 674.705 374.176 673.656 368.289 671.594L367.778 671.412C355.447 666.954 345.097 658.264 338.568 646.889C332.039 635.514 329.754 622.191 332.119 609.288C334.484 596.386 341.346 584.741 351.485 576.425C361.624 568.108 374.382 563.659 387.491 563.869C400.6 564.079 413.209 568.934 423.077 577.57C432.945 586.207 439.431 598.065 441.383 611.037C443.334 624.008 440.624 637.252 433.735 648.412C426.845 659.572 416.223 667.926 403.757 671.988C403.408 672.099 403.08 672.203 402.747 672.302C401.355 672.731 399.877 673.116 398.368 673.444C395.678 674.027 392.948 674.406 390.2 674.578C389.02 674.658 387.807 674.698 386.605 674.698ZM386.605 566.792C374.262 566.794 362.314 571.15 352.864 579.095C343.414 587.039 337.066 598.063 334.937 610.228C332.808 622.393 335.035 634.919 341.225 645.604C347.415 656.288 357.172 664.447 368.78 668.645L369.266 668.818C374.838 670.769 380.701 671.762 386.605 671.756C387.742 671.756 388.887 671.717 390.011 671.641C392.612 671.479 395.198 671.12 397.745 670.567C399.173 670.258 400.569 669.894 401.894 669.486C402.222 669.388 402.533 669.289 402.845 669.19C414.718 665.32 424.823 657.34 431.342 646.684C437.861 636.028 440.367 623.395 438.41 611.055C436.453 598.716 430.161 587.479 420.665 579.366C411.169 571.252 399.092 566.794 386.605 566.792V566.792Z" fill="#CCCCCC"/>
<path d="M67.4708 732.575C67.4614 739.677 68.8574 746.709 71.5785 753.268C74.2995 759.827 78.2916 765.782 83.3244 770.789C83.7462 771.206 84.1775 771.623 84.6137 772.03C87.2418 774.486 90.1093 776.673 93.1732 778.558C93.7613 778.921 94.3496 779.269 94.9526 779.608C98.0511 781.355 101.316 782.789 104.698 783.89C105.281 784.081 105.875 784.262 106.468 784.429C117.22 787.514 128.663 787.192 139.225 783.507C139.43 783.434 139.636 783.36 139.837 783.286C149.109 779.912 157.277 774.057 163.454 766.359C169.63 758.662 173.578 749.416 174.867 739.63C176.156 729.843 174.737 719.89 170.764 710.855C166.792 701.819 160.418 694.047 152.337 688.384C144.256 682.721 134.777 679.385 124.933 678.738C115.088 678.091 105.255 680.159 96.5029 684.716C87.7513 689.273 80.4168 696.145 75.2978 704.584C70.1789 713.022 67.4716 722.704 67.4708 732.575V732.575Z" fill="white"/>
<path d="M110.007 759.02C110.033 763.2 108.494 767.238 105.691 770.338C102.919 773.383 98.7909 775.402 94.6255 774.567C90.7899 773.797 87.6731 770.443 88.0619 766.386C88.1264 765.507 88.3817 764.652 88.81 763.882C89.2383 763.112 89.8293 762.445 90.5418 761.927C91.2543 761.409 92.0712 761.052 92.9354 760.883C93.7997 760.713 94.6906 760.734 95.546 760.944C99.1896 761.89 100.641 767.144 97.6052 769.61C96.8766 770.202 95.8299 769.167 96.5653 768.569C98.5724 766.939 97.9524 763.373 95.5297 762.478C92.7091 761.437 89.7207 763.676 89.5179 766.562C89.2774 769.982 91.8965 772.559 95.1084 773.165C98.5831 773.821 102.028 772.042 104.382 769.586C107.081 766.734 108.57 762.947 108.537 759.02C108.543 758.829 108.624 758.649 108.761 758.516C108.898 758.383 109.081 758.309 109.272 758.309C109.463 758.309 109.646 758.383 109.783 758.516C109.92 758.649 110.001 758.829 110.007 759.02L110.007 759.02Z" fill="#2F2E41"/>
<path d="M124.368 768.374C138.858 768.374 150.604 756.622 150.604 742.124C150.604 727.626 138.858 715.874 124.368 715.874C109.878 715.874 98.1316 727.626 98.1316 742.124C98.1316 756.622 109.878 768.374 124.368 768.374Z" fill="#E6ACB4"/>
<path d="M123.025 753.325L122.998 752.344C124.822 752.293 126.43 752.178 127.638 751.295C127.981 751.031 128.263 750.695 128.464 750.312C128.665 749.929 128.782 749.506 128.806 749.074C128.827 748.81 128.787 748.544 128.689 748.298C128.591 748.052 128.438 747.832 128.241 747.654C127.439 746.977 126.148 747.196 125.207 747.628L124.396 748L125.952 736.625L126.923 736.758L125.6 746.434C126.878 746.058 128.062 746.22 128.874 746.905C129.185 747.177 129.429 747.518 129.588 747.9C129.746 748.282 129.814 748.696 129.786 749.109C129.757 749.69 129.602 750.257 129.331 750.772C129.06 751.286 128.679 751.735 128.217 752.087C126.664 753.223 124.647 753.279 123.025 753.325Z" fill="#2F2E41"/>
<path d="M137.007 737.593H131.727V738.574H137.007V737.593Z" fill="#2F2E41"/>
<path d="M120.34 737.593H115.059V738.574H120.34V737.593Z" fill="#2F2E41"/>
<path d="M106.468 784.429C117.22 787.514 128.663 787.192 139.225 783.507C139.43 783.434 139.636 783.36 139.837 783.286C137.349 781.366 134.534 779.91 131.528 778.99C131.741 778.236 131.737 777.437 131.518 776.684C131.221 775.731 130.623 774.899 129.815 774.312C129.007 773.725 128.031 773.415 127.033 773.428H120.64C119.643 773.414 118.669 773.723 117.862 774.31C117.056 774.896 116.46 775.727 116.165 776.68C115.945 777.434 115.942 778.234 116.155 778.99C113.507 779.801 111.005 781.028 108.742 782.624C108.287 782.943 107.845 783.277 107.419 783.625C107.095 783.885 106.777 784.155 106.468 784.429Z" fill="#2F2E41"/>
<path d="M144.921 739.339C144.921 743.763 147.097 747.432 149.926 748.07C150.214 748.134 150.508 748.167 150.804 748.168C154.044 748.168 156.686 744.21 156.686 739.339C156.686 736.514 155.799 733.998 154.421 732.384C153.943 731.805 153.355 731.327 152.691 730.976C152.108 730.672 151.461 730.512 150.804 730.51C149.901 730.522 149.024 730.817 148.298 731.354C146.303 732.767 144.921 735.813 144.921 739.339Z" fill="#3F3D56"/>
<path d="M92.4673 739.339C92.4673 743.145 94.0751 746.392 96.3302 747.633C96.9475 747.979 97.6424 748.163 98.3499 748.168C98.5073 748.168 98.6644 748.158 98.8206 748.138C101.84 747.78 104.233 743.974 104.233 739.339C104.233 735.626 102.698 732.443 100.531 731.143C99.876 730.736 99.1213 730.517 98.3499 730.51C97.6926 730.512 97.0453 730.672 96.4625 730.976C95.7966 731.328 95.2068 731.808 94.7272 732.389C93.3544 734.003 92.4673 736.519 92.4673 739.339Z" fill="#3F3D56"/>
<path d="M96.6969 746.787C96.8136 746.787 96.9287 746.759 97.0325 746.706C97.1363 746.652 97.226 746.575 97.2941 746.48C97.3621 746.385 97.4067 746.275 97.424 746.16C97.4414 746.044 97.431 745.926 97.3938 745.816C95.9884 741.634 95.5656 737.185 96.1583 732.813C96.751 728.442 98.3432 724.266 100.811 720.61C103.279 716.954 106.556 713.917 110.388 711.735C114.22 709.552 118.503 708.283 122.905 708.026C127.307 707.769 131.708 708.532 135.768 710.253C139.827 711.975 143.435 714.61 146.312 717.954C149.188 721.298 151.254 725.26 152.351 729.533C153.448 733.806 153.545 738.274 152.635 742.591C152.616 742.685 152.614 742.783 152.632 742.878C152.65 742.973 152.686 743.064 152.739 743.144C152.792 743.225 152.86 743.295 152.939 743.35C153.019 743.404 153.109 743.443 153.203 743.463C153.298 743.483 153.395 743.484 153.49 743.466C153.585 743.448 153.676 743.412 153.756 743.359C153.837 743.306 153.907 743.238 153.962 743.159C154.016 743.079 154.055 742.989 154.075 742.895C155.032 738.356 154.93 733.658 153.777 729.165C152.624 724.673 150.452 720.507 147.428 716.991C144.404 713.475 140.611 710.704 136.342 708.894C132.074 707.083 127.446 706.282 122.818 706.552C118.19 706.823 113.687 708.157 109.658 710.452C105.63 712.747 102.184 715.941 99.5897 719.784C96.9952 723.628 95.3217 728.019 94.6991 732.616C94.0766 737.212 94.5218 741.89 96.0002 746.286C96.0494 746.432 96.143 746.559 96.268 746.649C96.393 746.738 96.543 746.787 96.6969 746.787V746.787Z" fill="#3F3D56"/>
<path d="M137.547 725.116C138.586 726.535 138.074 728.447 136.98 729.67C135.555 731.262 133.284 731.363 131.312 731.067C129.099 730.736 126.751 729.698 124.511 730.397C122.601 730.993 121.239 732.726 119.255 733.161C117.496 733.547 115.392 733.036 114.775 731.16C114.479 730.258 115.898 729.872 116.193 730.769C116.592 731.983 118.315 731.959 119.302 731.622C120.884 731.084 122.103 729.773 123.658 729.147C125.491 728.409 127.48 728.742 129.346 729.162C131.105 729.559 133.129 730.146 134.882 729.406C136.179 728.858 137.21 727.133 136.278 725.859C135.718 725.094 136.993 724.359 137.547 725.116V725.116Z" fill="#2F2E41"/>
<path d="M121.395 788C116.208 788.004 111.045 787.278 106.06 785.843C105.474 785.678 104.859 785.491 104.241 785.288C100.767 784.157 97.4141 782.684 94.2312 780.89C93.6342 780.555 93.0349 780.202 92.4013 779.811C89.2547 777.874 86.3095 775.628 83.6095 773.105C83.1641 772.689 82.7227 772.262 82.2911 771.836C73.8001 763.366 68.2854 752.367 66.5755 740.493C64.8656 728.619 67.0527 716.511 72.8084 705.987C78.5641 695.463 87.5774 687.091 98.4945 682.13C109.412 677.17 121.643 675.887 133.351 678.475C145.058 681.064 155.611 687.383 163.422 696.484C171.234 705.586 175.883 716.978 176.67 728.948C177.458 740.919 174.343 752.822 167.792 762.87C161.24 772.918 151.608 780.567 140.34 784.669C140.138 784.743 139.928 784.818 139.719 784.893C133.83 786.956 127.635 788.007 121.395 788V788ZM121.395 680.094C111.014 680.094 100.866 683.177 92.2362 688.951C83.6067 694.725 76.8837 702.932 72.9185 712.532C68.9533 722.131 67.9241 732.692 69.9614 742.877C71.9986 753.062 77.0106 762.414 84.3628 769.747C84.7698 770.149 85.191 770.556 85.617 770.954C88.1741 773.343 90.9635 775.471 93.9436 777.305C94.5439 777.675 95.1088 778.008 95.6721 778.324C98.6867 780.023 101.862 781.419 105.152 782.49C105.735 782.681 106.31 782.856 106.866 783.012C117.327 786.016 128.462 785.704 138.738 782.118L139.333 781.904C150.921 777.684 160.654 769.513 166.82 758.827C172.987 748.14 175.193 735.622 173.052 723.47C170.911 711.318 164.56 700.309 155.113 692.377C145.666 684.444 133.728 680.095 121.395 680.094V680.094Z" fill="#CCCCCC"/>
</g>
<defs>
<clipPath id="clip0">
<rect width="421" height="453" fill="white"/>
</clipPath>
<clipPath id="clip1">
<rect width="376" height="335" fill="white" transform="translate(66 453)"/>
</clipPath>
</defs>
</svg>
