<svg width="726" height="781" viewBox="0 0 726 781" fill="none" xmlns="http://www.w3.org/2000/svg">
<path d="M460.521 443.114L146.698 523.909C136.053 526.637 124.76 525.032 115.297 519.446C105.834 513.859 98.9738 504.749 96.2213 494.112L1.3129 125.633C-1.41556 114.99 0.189985 103.699 5.77731 94.2385C11.3646 84.7776 20.4775 77.9188 31.1165 75.1669L323.078 0L397.806 33.4461L490.325 392.648C493.054 403.291 491.448 414.581 485.861 424.042C480.273 433.503 471.161 440.362 460.521 443.114V443.114Z" fill="#F2F2F2"/>
<path d="M34.0935 86.72C26.5172 88.6796 20.0278 93.5639 16.0489 100.301C12.0701 107.038 10.9267 115.079 12.8697 122.658L107.778 491.137C109.738 498.712 114.624 505.2 121.362 509.178C128.101 513.156 136.143 514.299 143.724 512.356L457.547 431.561C465.123 429.601 471.613 424.717 475.592 417.979C479.571 411.242 480.714 403.202 478.771 395.623L387.686 41.9869L322.013 12.5936L34.0935 86.72Z" fill="white"/>
<path d="M397.01 35.347L348.442 47.8512C344.896 48.764 341.133 48.2313 337.98 46.3702C334.828 44.5091 332.543 41.472 331.63 37.9272L322.393 2.06308C322.353 1.90606 322.357 1.74083 322.406 1.58634C322.456 1.43184 322.547 1.29433 322.671 1.18958C322.795 1.08482 322.946 1.01706 323.106 0.994069C323.267 0.971078 323.43 0.993782 323.579 1.05958L397.145 33.7233C397.309 33.7959 397.446 33.9178 397.537 34.0719C397.629 34.2259 397.67 34.4046 397.655 34.5831C397.64 34.7616 397.57 34.931 397.454 35.0679C397.339 35.2048 397.184 35.3023 397.01 35.347V35.347Z" fill="#F2F2F2"/>
<path d="M371.459 350.02L228.579 386.805C227.702 387.031 226.788 387.082 225.89 386.955C224.993 386.828 224.129 386.526 223.349 386.065C222.568 385.604 221.886 384.994 221.341 384.27C220.796 383.546 220.4 382.721 220.174 381.843C219.948 380.966 219.897 380.052 220.024 379.155C220.151 378.258 220.453 377.394 220.914 376.614C221.375 375.833 221.985 375.151 222.71 374.607C223.434 374.062 224.259 373.666 225.137 373.44L368.016 336.655C368.894 336.429 369.808 336.378 370.705 336.505C371.603 336.632 372.466 336.934 373.247 337.395C374.027 337.856 374.71 338.466 375.254 339.19C375.799 339.914 376.196 340.739 376.422 341.617C376.648 342.494 376.699 343.408 376.572 344.305C376.445 345.202 376.142 346.066 375.681 346.846C375.22 347.627 374.61 348.308 373.886 348.853C373.161 349.398 372.337 349.794 371.459 350.02Z" fill="#CCCCCC"/>
<path d="M404.842 365.476L234.389 409.36C232.616 409.817 230.735 409.55 229.158 408.62C227.582 407.689 226.44 406.171 225.983 404.398C225.527 402.626 225.793 400.745 226.724 399.169C227.655 397.593 229.174 396.451 230.946 395.995L401.399 352.111C403.171 351.656 405.051 351.923 406.626 352.854C408.201 353.785 409.342 355.303 409.799 357.074C410.255 358.845 409.989 360.726 409.06 362.301C408.13 363.877 406.613 365.019 404.842 365.476V365.476Z" fill="#CCCCCC"/>
<path d="M170.264 431.109C183.738 431.109 194.661 420.189 194.661 406.718C194.661 393.247 183.738 382.327 170.264 382.327C156.79 382.327 145.868 393.247 145.868 406.718C145.868 420.189 156.79 431.109 170.264 431.109Z" fill="#E6E6E6"/>
<path d="M356.266 286.187L166.508 335.023C161.024 336.428 155.207 335.6 150.332 332.722C145.458 329.844 141.924 325.15 140.507 319.671L100.74 165.222C99.3352 159.739 100.163 153.923 103.042 149.049C105.92 144.176 110.615 140.643 116.096 139.226L305.854 90.3899C311.338 88.9851 317.156 89.8125 322.03 92.6907C326.905 95.5688 330.438 100.263 331.856 105.742L371.622 260.191C373.027 265.674 372.2 271.49 369.321 276.363C366.442 281.237 361.747 284.77 356.266 286.187Z" fill="white"/>
<path d="M356.266 286.187L166.508 335.023C161.024 336.428 155.207 335.6 150.332 332.722C145.458 329.844 141.924 325.15 140.507 319.671L100.74 165.222C99.3352 159.739 100.163 153.923 103.042 149.049C105.92 144.176 110.615 140.643 116.096 139.226L305.854 90.3899C311.338 88.9851 317.156 89.8125 322.03 92.6907C326.905 95.5688 330.438 100.263 331.856 105.742L371.622 260.191C373.027 265.674 372.2 271.49 369.321 276.363C366.442 281.237 361.747 284.77 356.266 286.187ZM116.722 141.658C111.886 142.909 107.744 146.026 105.204 150.326C102.664 154.626 101.933 159.758 103.173 164.596L142.939 319.045C144.19 323.88 147.308 328.021 151.609 330.561C155.91 333.1 161.043 333.83 165.882 332.591L355.64 283.755C360.476 282.504 364.619 279.387 367.159 275.087C369.699 270.787 370.429 265.655 369.189 260.817L329.423 106.368C328.172 101.533 325.054 97.3918 320.753 94.8523C316.452 92.3127 311.319 91.5827 306.48 92.8222L116.722 141.658Z" fill="#E6E6E6"/>
<path d="M296.227 142.322L200.459 166.969C199.622 167.202 198.727 167.109 197.956 166.709C197.184 166.308 196.594 165.63 196.303 164.81C196.168 164.383 196.122 163.932 196.167 163.485C196.212 163.039 196.347 162.606 196.565 162.213C196.783 161.821 197.078 161.477 197.433 161.203C197.789 160.928 198.196 160.729 198.631 160.617L296.117 135.528C300.055 137.523 299.019 141.603 296.226 142.322L296.227 142.322Z" fill="#F2F2F2"/>
<path d="M300.551 159.116L204.783 183.763C203.946 183.997 203.051 183.904 202.28 183.504C201.508 183.103 200.918 182.424 200.628 181.605C200.492 181.177 200.446 180.726 200.491 180.28C200.536 179.833 200.672 179.401 200.889 179.008C201.107 178.616 201.403 178.272 201.758 177.997C202.113 177.723 202.52 177.524 202.955 177.412L300.441 152.323C304.379 154.318 303.343 158.398 300.55 159.117L300.551 159.116Z" fill="#F2F2F2"/>
<path d="M186.542 198.654L157.315 206.176C156.36 206.421 155.347 206.277 154.499 205.776C153.65 205.275 153.035 204.458 152.789 203.504L143.91 169.02C143.666 168.066 143.81 167.054 144.311 166.205C144.812 165.357 145.629 164.742 146.583 164.495L175.811 156.973C176.765 156.729 177.778 156.873 178.626 157.374C179.475 157.875 180.09 158.692 180.337 159.646L189.215 194.129C189.46 195.083 189.316 196.096 188.815 196.944C188.314 197.793 187.496 198.407 186.542 198.654V198.654Z" fill="#E6E6E6"/>
<path d="M309.127 193.575L162.967 231.191C162.129 231.425 161.235 231.332 160.463 230.931C159.692 230.531 159.101 229.852 158.811 229.033C158.676 228.605 158.63 228.154 158.675 227.708C158.72 227.261 158.855 226.828 159.073 226.436C159.291 226.044 159.586 225.7 159.941 225.425C160.296 225.151 160.704 224.952 161.138 224.84L309.018 186.781C312.956 188.776 311.919 192.857 309.127 193.575L309.127 193.575Z" fill="#F2F2F2"/>
<path d="M313.452 210.375L167.292 247.991C166.455 248.224 165.56 248.132 164.789 247.731C164.017 247.33 163.427 246.652 163.137 245.833C163.001 245.405 162.955 244.954 163 244.507C163.045 244.061 163.181 243.628 163.398 243.236C163.616 242.843 163.912 242.499 164.267 242.225C164.622 241.95 165.029 241.751 165.464 241.639L313.343 203.581C317.281 205.576 316.245 209.656 313.452 210.375V210.375Z" fill="#F2F2F2"/>
<path d="M317.775 227.164L171.615 264.779C170.777 265.013 169.883 264.92 169.111 264.52C168.34 264.119 167.749 263.441 167.459 262.621C167.324 262.193 167.278 261.742 167.323 261.296C167.368 260.849 167.503 260.417 167.721 260.024C167.939 259.632 168.234 259.288 168.589 259.014C168.944 258.739 169.352 258.54 169.786 258.428L317.666 220.37C321.604 222.365 320.567 226.445 317.775 227.164V227.164Z" fill="#F2F2F2"/>
<path d="M322.1 243.962L175.94 281.578C175.103 281.812 174.208 281.719 173.436 281.318C172.665 280.917 172.075 280.239 171.784 279.42C171.649 278.992 171.603 278.541 171.648 278.094C171.693 277.648 171.828 277.215 172.046 276.823C172.264 276.43 172.559 276.086 172.914 275.812C173.27 275.538 173.677 275.338 174.112 275.226L321.991 237.168C325.929 239.163 324.893 243.244 322.1 243.962L322.1 243.962Z" fill="#F2F2F2"/>
<path d="M326.423 260.752L180.263 298.368C179.426 298.602 178.531 298.509 177.759 298.108C176.988 297.707 176.397 297.029 176.107 296.21C175.972 295.782 175.926 295.331 175.971 294.884C176.016 294.438 176.151 294.005 176.369 293.613C176.587 293.22 176.882 292.876 177.237 292.602C177.593 292.327 178 292.128 178.435 292.016L326.314 253.958C330.252 255.953 329.216 260.033 326.423 260.752V260.752Z" fill="#F2F2F2"/>
<path d="M172.064 415.268C171.533 415.406 170.971 415.367 170.464 415.158L170.432 415.145L163.786 412.328C163.478 412.197 163.198 412.007 162.963 411.769C162.728 411.53 162.543 411.247 162.417 410.937C162.292 410.626 162.229 410.294 162.232 409.959C162.235 409.624 162.304 409.293 162.435 408.985C162.566 408.677 162.756 408.398 162.995 408.163C163.234 407.929 163.517 407.744 163.828 407.619C164.139 407.494 164.471 407.431 164.806 407.435C165.141 407.438 165.472 407.508 165.78 407.639L170.087 409.471L175.73 396.198C175.861 395.89 176.051 395.611 176.29 395.377C176.529 395.143 176.811 394.958 177.121 394.833C177.431 394.708 177.763 394.645 178.098 394.648C178.432 394.651 178.763 394.72 179.07 394.851L179.071 394.851L179.037 394.938L179.073 394.851C179.694 395.116 180.185 395.617 180.437 396.243C180.69 396.869 180.683 397.57 180.42 398.192L173.78 413.797C173.626 414.157 173.392 414.477 173.094 414.731C172.797 414.986 172.445 415.168 172.065 415.265L172.064 415.268Z" fill="white"/>
<path d="M580.893 583.532H256.832C245.842 583.519 235.307 579.149 227.536 571.38C219.765 563.611 215.394 553.078 215.382 542.091V161.59C215.394 150.603 219.765 140.07 227.536 132.301C235.307 124.532 245.842 120.162 256.832 120.15H558.318L622.343 171.171V542.091C622.33 553.078 617.959 563.611 610.189 571.38C602.418 579.149 591.882 583.519 580.893 583.532V583.532Z" fill="#E6E6E6"/>
<path d="M256.831 132.08C249.006 132.088 241.503 135.2 235.969 140.733C230.436 146.265 227.323 153.766 227.314 161.59V542.091C227.323 549.915 230.436 557.416 235.969 562.948C241.503 568.481 249.006 571.593 256.831 571.602H580.893C588.719 571.593 596.222 568.481 601.755 562.948C607.289 557.416 610.401 549.915 610.41 542.091V176.918L554.144 132.08H256.831Z" fill="white"/>
<path d="M517.863 242.719H370.322C368.492 242.719 366.736 241.992 365.442 240.698C364.147 239.403 363.42 237.648 363.42 235.818C363.42 233.988 364.147 232.232 365.442 230.938C366.736 229.644 368.492 228.917 370.322 228.917H517.863C519.694 228.917 521.449 229.644 522.744 230.938C524.038 232.232 524.766 233.988 524.766 235.818C524.766 237.648 524.038 239.403 522.744 240.698C521.449 241.992 519.694 242.719 517.863 242.719V242.719Z" fill="#0069E4"/>
<path d="M546.336 266.01H370.323C368.494 266.007 366.74 265.279 365.448 263.985C364.155 262.691 363.429 260.937 363.429 259.109C363.429 257.28 364.155 255.526 365.448 254.232C366.74 252.938 368.494 252.21 370.323 252.208H546.336C547.243 252.207 548.142 252.384 548.98 252.731C549.819 253.077 550.581 253.585 551.223 254.226C551.865 254.867 552.374 255.628 552.722 256.466C553.069 257.304 553.248 258.202 553.248 259.109C553.248 260.016 553.069 260.914 552.722 261.752C552.374 262.59 551.865 263.351 551.223 263.992C550.581 264.633 549.819 265.141 548.98 265.487C548.142 265.833 547.243 266.011 546.336 266.01V266.01Z" fill="#0069E4"/>
<path d="M517.864 333.29H370.328C368.498 333.29 366.742 334.017 365.448 335.311C364.153 336.605 363.426 338.361 363.426 340.191C363.426 342.021 364.153 343.776 365.448 345.07C366.742 346.364 368.498 347.091 370.328 347.091H517.864C519.694 347.091 521.45 346.364 522.744 345.07C524.039 343.776 524.766 342.021 524.766 340.191C524.766 338.361 524.039 336.605 522.744 335.311C521.45 334.017 519.694 333.29 517.864 333.29V333.29Z" fill="#CCCCCC"/>
<path d="M546.339 356.585H370.328C368.498 356.585 366.742 357.312 365.448 358.606C364.153 359.9 363.426 361.655 363.426 363.486C363.426 365.316 364.153 367.071 365.448 368.365C366.742 369.659 368.498 370.386 370.328 370.386H546.339C548.169 370.386 549.925 369.659 551.219 368.365C552.514 367.071 553.241 365.316 553.241 363.486C553.241 361.655 552.514 359.9 551.219 358.606C549.925 357.312 548.169 356.585 546.339 356.585Z" fill="#CCCCCC"/>
<path d="M517.863 451.473H370.322C368.492 451.473 366.736 450.746 365.442 449.452C364.147 448.158 363.42 446.403 363.42 444.572C363.42 442.742 364.147 440.987 365.442 439.693C366.736 438.398 368.492 437.671 370.322 437.671H517.863C519.694 437.671 521.449 438.398 522.744 439.693C524.038 440.987 524.766 442.742 524.766 444.572C524.766 446.403 524.038 448.158 522.744 449.452C521.449 450.746 519.694 451.473 517.863 451.473V451.473Z" fill="#CCCCCC"/>
<path d="M546.336 474.764H370.323C368.494 474.762 366.74 474.033 365.448 472.74C364.155 471.446 363.429 469.692 363.429 467.863C363.429 466.034 364.155 464.281 365.448 462.987C366.74 461.693 368.494 460.965 370.323 460.962H546.336C547.243 460.961 548.142 461.139 548.98 461.485C549.819 461.831 550.581 462.339 551.223 462.98C551.865 463.621 552.374 464.382 552.722 465.22C553.069 466.058 553.248 466.956 553.248 467.863C553.248 468.77 553.069 469.668 552.722 470.506C552.374 471.344 551.865 472.105 551.223 472.746C550.581 473.387 549.819 473.895 548.98 474.241C548.142 474.588 547.243 474.765 546.336 474.764Z" fill="#CCCCCC"/>
<path d="M308.883 271.854C322.357 271.854 333.279 260.934 333.279 247.463C333.279 233.992 322.357 223.072 308.883 223.072C295.409 223.072 284.486 233.992 284.486 247.463C284.486 260.934 295.409 271.854 308.883 271.854Z" fill="#0069E4"/>
<path d="M306.465 256.768C305.916 256.769 305.382 256.591 304.943 256.262L304.916 256.242L299.182 251.857C298.916 251.653 298.692 251.4 298.524 251.11C298.356 250.82 298.247 250.5 298.202 250.168C298.158 249.836 298.18 249.498 298.266 249.175C298.353 248.851 298.502 248.548 298.706 248.282C298.91 248.016 299.164 247.793 299.454 247.625C299.745 247.458 300.065 247.349 300.397 247.306C300.729 247.262 301.067 247.285 301.391 247.372C301.714 247.459 302.017 247.609 302.283 247.813L305.996 250.661L314.772 239.214C314.976 238.949 315.229 238.726 315.519 238.559C315.808 238.392 316.128 238.283 316.46 238.239C316.791 238.195 317.128 238.217 317.451 238.304C317.775 238.39 318.077 238.539 318.343 238.743L318.344 238.743L318.289 238.819L318.345 238.743C318.881 239.155 319.231 239.762 319.319 240.431C319.408 241.101 319.227 241.778 318.816 242.314L308.494 255.771C308.255 256.081 307.948 256.332 307.597 256.505C307.245 256.677 306.859 256.766 306.467 256.765L306.465 256.768Z" fill="white"/>
<path d="M335.787 351.838C335.788 355.041 335.158 358.214 333.933 361.174C332.707 364.134 330.911 366.824 328.646 369.089C326.381 371.355 323.691 373.153 320.731 374.379C317.771 375.606 314.598 376.237 311.394 376.238C311.185 376.242 310.975 376.234 310.766 376.213C305.969 376.09 301.315 374.555 297.386 371.801C293.457 369.046 290.428 365.195 288.678 360.728C286.927 356.261 286.533 351.377 287.545 346.687C288.557 341.998 290.93 337.711 294.367 334.363C297.804 331.015 302.152 328.754 306.867 327.864C311.582 326.975 316.455 327.495 320.876 329.36C325.297 331.225 329.07 334.353 331.722 338.351C334.374 342.349 335.788 347.04 335.787 351.838V351.838Z" fill="#CCCCCC"/>
<path d="M308.883 480.609C322.357 480.609 333.279 469.689 333.279 456.218C333.279 442.747 322.357 431.827 308.883 431.827C295.409 431.827 284.486 442.747 284.486 456.218C284.486 469.689 295.409 480.609 308.883 480.609Z" fill="#CCCCCC"/>
<path d="M621.097 172.813H570.944C567.282 172.813 563.771 171.358 561.182 168.77C558.593 166.182 557.139 162.671 557.139 159.011V121.976C557.139 121.814 557.184 121.655 557.271 121.518C557.357 121.381 557.48 121.27 557.626 121.2C557.772 121.129 557.935 121.101 558.096 121.119C558.257 121.137 558.41 121.2 558.537 121.3L621.632 171.274C621.773 171.385 621.875 171.537 621.925 171.709C621.975 171.881 621.97 172.064 621.911 172.233C621.853 172.403 621.742 172.549 621.596 172.653C621.45 172.757 621.276 172.813 621.097 172.813Z" fill="#CCCCCC"/>
<path d="M335.787 351.838C335.788 355.041 335.158 358.214 333.933 361.174C332.707 364.134 330.911 366.824 328.646 369.089C326.381 371.355 323.691 373.153 320.731 374.379C317.771 375.606 314.598 376.237 311.394 376.238C311.185 376.242 310.975 376.233 310.766 376.213C307.614 368.353 306.399 359.851 307.224 351.423C308.048 342.996 310.887 334.89 315.502 327.79C321.177 328.762 326.325 331.709 330.037 336.11C333.749 340.511 335.786 346.081 335.787 351.838V351.838Z" fill="#0069E4"/>
<path d="M363.42 340.197C363.423 338.366 364.152 336.611 365.447 335.317C366.742 334.022 368.497 333.294 370.328 333.29H407.093C409.24 337.657 410.766 342.302 411.627 347.091H370.328C368.498 347.091 366.743 346.365 365.448 345.072C364.153 343.78 363.423 342.027 363.42 340.197V340.197Z" fill="#0069E4"/>
<path d="M412.481 356.585C412.484 361.246 411.867 365.887 410.647 370.386H370.328C368.497 370.386 366.742 369.659 365.448 368.365C364.153 367.071 363.426 365.316 363.426 363.486C363.426 361.655 364.153 359.9 365.448 358.606C366.742 357.312 368.497 356.585 370.328 356.585H412.481Z" fill="#0069E4"/>
<path d="M503.447 441.698C502.406 443.404 500.73 444.627 498.787 445.098C496.845 445.568 494.795 445.248 493.088 444.207L405.159 390.585C404.314 390.07 403.578 389.393 402.995 388.594C402.412 387.795 401.992 386.888 401.759 385.927C401.525 384.965 401.484 383.967 401.637 382.989C401.79 382.012 402.134 381.074 402.649 380.229C403.164 379.384 403.841 378.649 404.641 378.066C405.44 377.483 406.347 377.063 407.308 376.83C408.27 376.597 409.269 376.556 410.247 376.708C411.224 376.861 412.163 377.205 413.007 377.72L500.937 431.342C502.644 432.383 503.867 434.059 504.337 436.001C504.808 437.943 504.488 439.992 503.447 441.698V441.698Z" fill="#3F3D56"/>
<path d="M415.517 388.076C409.308 398.254 400.219 406.362 389.4 411.376C378.582 416.389 366.519 418.083 354.737 416.242C342.956 414.402 331.985 409.11 323.212 401.035C314.439 392.961 308.258 382.467 305.45 370.88C302.643 359.294 303.335 347.135 307.439 335.942C311.543 324.748 318.875 315.023 328.507 307.996C338.14 300.968 349.64 296.955 361.554 296.462C373.469 295.969 385.261 299.02 395.441 305.228C409.078 313.565 418.85 326.97 422.614 342.502C426.378 358.034 423.825 374.424 415.517 388.076ZM325.443 333.146C320.785 340.78 318.497 349.622 318.867 358.556C319.236 367.49 322.247 376.113 327.519 383.336C332.791 390.559 340.086 396.056 348.483 399.134C356.88 402.211 366.001 402.73 374.693 400.625C383.384 398.519 391.257 393.885 397.314 387.306C403.371 380.728 407.341 372.502 408.722 363.668C410.102 354.833 408.832 345.788 405.071 337.676C401.31 329.564 395.228 322.749 387.592 318.093C377.351 311.863 365.055 309.949 353.404 312.771C341.753 315.593 331.697 322.921 325.443 333.146V333.146Z" fill="#3F3D56"/>
<path d="M608.687 366.352C625.725 366.352 639.537 352.543 639.537 335.509C639.537 318.475 625.725 304.666 608.687 304.666C591.649 304.666 577.837 318.475 577.837 335.509C577.837 352.543 591.649 366.352 608.687 366.352Z" fill="#A0616A"/>
<path d="M606.693 508.419C606.098 506.566 605.902 504.607 606.116 502.673C606.331 500.738 606.952 498.871 607.939 497.193C608.926 495.515 610.257 494.065 611.843 492.937C613.43 491.809 615.237 491.029 617.147 490.648C617.751 490.53 618.364 490.455 618.979 490.422L651.476 438.278L621.792 410.065C620.658 408.987 619.748 407.695 619.116 406.264C618.484 404.832 618.142 403.29 618.11 401.726C618.077 400.162 618.355 398.607 618.927 397.15C619.499 395.694 620.354 394.366 621.443 393.241C622.531 392.117 623.832 391.22 625.269 390.601C626.706 389.982 628.252 389.655 629.817 389.636C631.381 389.618 632.934 389.91 634.386 390.495C635.837 391.08 637.158 391.947 638.272 393.046L679.257 433.449L679.339 433.549C680.607 435.478 681.219 437.764 681.084 440.068C680.95 442.372 680.076 444.571 678.592 446.339L633.06 500.178C633.196 500.609 633.309 501.048 633.399 501.491C633.78 503.4 633.753 505.368 633.32 507.266C632.887 509.164 632.058 510.949 630.887 512.504C629.716 514.059 628.229 515.349 626.525 516.29C624.82 517.23 622.936 517.8 620.996 517.962C620.604 517.997 620.213 518.014 619.825 518.014C616.904 518.002 614.062 517.067 611.704 515.344C609.345 513.621 607.592 511.198 606.693 508.419V508.419Z" fill="#A0616A"/>
<path d="M557.877 764.769L542.478 764.768L535.153 705.385L557.88 705.386L557.877 764.769Z" fill="#A0616A"/>
<path d="M561.804 779.693L512.151 779.691V779.063C512.151 776.526 512.651 774.013 513.622 771.669C514.594 769.325 516.017 767.195 517.812 765.401C519.606 763.607 521.737 762.183 524.082 761.212C526.427 760.241 528.94 759.742 531.478 759.742H531.479L561.805 759.743L561.804 779.693Z" fill="#2F2E41"/>
<path d="M710.935 743.483L697.703 751.359L661.02 704.084L680.548 692.459L710.935 743.483Z" fill="#A0616A"/>
<path d="M721.945 754.297L679.282 779.693L678.961 779.154C677.662 776.974 676.806 774.559 676.441 772.048C676.076 769.537 676.209 766.979 676.833 764.519C677.457 762.06 678.559 759.747 680.077 757.713C681.594 755.68 683.498 753.965 685.679 752.667L685.68 752.666L711.737 737.155L721.945 754.297Z" fill="#2F2E41"/>
<path d="M533.21 738.617C522.895 617.176 516.758 504.358 554.468 458.336L554.76 457.979L618.222 483.36L618.327 483.587C618.541 484.053 639.647 530.468 634.724 561.689L650.377 633.68L701.418 719.125C701.829 719.812 702.089 720.58 702.181 721.376C702.272 722.171 702.194 722.978 701.95 723.741C701.707 724.504 701.304 725.207 700.768 725.803C700.232 726.398 699.576 726.873 698.842 727.196L676.661 736.953C675.41 737.498 674.004 737.573 672.701 737.166C671.398 736.759 670.285 735.896 669.566 734.736L614.044 644.219L582.683 574.792C582.513 574.415 582.223 574.105 581.859 573.909C581.494 573.713 581.076 573.643 580.667 573.708C580.259 573.774 579.883 573.972 579.599 574.272C579.314 574.572 579.136 574.958 579.092 575.369L561.708 738.741C561.563 740.129 560.908 741.415 559.87 742.348C558.832 743.282 557.484 743.797 556.088 743.795H538.845C537.43 743.787 536.069 743.252 535.027 742.294C533.985 741.337 533.338 740.026 533.21 738.617V738.617Z" fill="#2F2E41"/>
<path d="M554.682 459.299L554.379 459.154L554.332 458.822C551.961 442.233 554.767 423.801 562.672 404.039C566.568 394.366 573.81 386.415 583.079 381.634C592.347 376.853 603.026 375.559 613.168 377.99V377.99C619.01 379.429 624.49 382.066 629.259 385.733C634.029 389.4 637.985 394.017 640.877 399.293C643.732 404.514 645.471 410.271 645.984 416.2C646.497 422.128 645.773 428.098 643.857 433.732C633.892 462.866 620.965 490.126 620.835 490.398L620.565 490.967L554.682 459.299Z" fill="#0069E4"/>
<path d="M485.44 417.98C486.968 416.773 488.734 415.904 490.622 415.427C492.509 414.951 494.477 414.879 496.394 415.215C498.312 415.552 500.137 416.29 501.749 417.381C503.361 418.472 504.725 419.891 505.75 421.546C506.073 422.071 506.358 422.618 506.604 423.183L566.837 435.354L582.874 397.677C583.487 396.237 584.379 394.933 585.498 393.84C586.618 392.747 587.943 391.886 589.397 391.308C590.851 390.73 592.406 390.445 593.97 390.471C595.535 390.497 597.079 390.832 598.513 391.458C599.948 392.084 601.244 392.987 602.327 394.117C603.41 395.246 604.258 396.578 604.824 398.037C605.389 399.496 605.659 401.053 605.619 402.617C605.579 404.181 605.229 405.722 604.59 407.15L581.09 459.679L581.024 459.792C579.661 461.654 577.734 463.028 575.529 463.709C573.323 464.39 570.957 464.341 568.781 463.571L502.395 439.786C502.038 440.064 501.667 440.324 501.283 440.563C499.628 441.589 497.775 442.252 495.845 442.512C493.915 442.771 491.953 442.619 490.086 442.067C488.219 441.515 486.489 440.575 485.011 439.308C483.533 438.041 482.339 436.476 481.508 434.716C481.339 434.361 481.186 434.001 481.05 433.638C480.038 430.898 479.918 427.909 480.707 425.097C481.495 422.285 483.152 419.794 485.44 417.98V417.98Z" fill="#A0616A"/>
<path d="M720.134 368.54C717.163 363.276 712.834 358.454 707.11 356.508C699.719 353.996 691.715 356.671 684.116 358.458C678.26 359.834 672.143 360.676 666.241 359.515C660.34 358.353 654.647 354.92 651.962 349.539C648.012 341.623 651.34 332.183 651.099 323.34C650.976 318.526 649.761 313.803 647.546 309.527C645.331 305.251 642.175 301.533 638.314 298.654C634.453 295.775 629.989 293.81 625.258 292.906C620.527 292.003 615.652 292.185 611.002 293.439C603.725 291.34 597.136 291.146 592.635 296.738C586.972 296.738 581.541 298.988 577.537 302.991C573.532 306.995 571.283 312.425 571.282 318.087H591.7C590.732 323.292 591.838 328.669 594.783 333.069C598.387 338.364 604.654 342.193 605.861 348.483C607.03 354.578 602.886 360.361 598.539 364.791C594.193 369.222 589.15 373.612 587.793 379.668C586.961 384.265 587.905 389.006 590.435 392.934C592.96 396.815 596.092 400.265 599.712 403.151C616.022 417.121 635.407 427.036 656.282 432.085C670.983 435.623 687.062 436.54 700.71 430.031C706.169 427.427 711.035 423.728 715.004 419.165C718.973 414.601 721.961 409.271 723.783 403.504C725.605 397.737 726.221 391.658 725.593 385.643C724.965 379.628 723.107 373.806 720.134 368.54V368.54Z" fill="#2F2E41"/>
<path d="M724.744 781H486.094C485.761 781 485.441 780.867 485.206 780.632C484.97 780.396 484.838 780.077 484.838 779.744C484.838 779.411 484.97 779.092 485.206 778.856C485.441 778.621 485.761 778.488 486.094 778.488H724.744C725.077 778.488 725.397 778.621 725.632 778.856C725.868 779.092 726 779.411 726 779.744C726 780.077 725.868 780.396 725.632 780.632C725.397 780.867 725.077 781 724.744 781Z" fill="#CCCCCC"/>
</svg>
