<svg width="421" height="453" viewBox="0 0 421 453" fill="none" xmlns="http://www.w3.org/2000/svg">
<g clip-path="url(#clip0)">
<path d="M267.053 257.017L85.0701 303.881C78.8971 305.463 72.3485 304.532 66.861 301.292C61.3735 298.052 57.3953 292.767 55.7992 286.598L0.762751 72.8701C-0.819454 66.697 0.111585 60.1483 3.35162 54.6607C6.59165 49.1732 11.8761 45.1949 18.0456 43.5987L187.351 0L230.685 19.3996L284.336 227.746C285.918 233.919 284.987 240.468 281.747 245.955C278.507 251.443 273.223 255.421 267.053 257.017V257.017Z" fill="#F2F2F2"/>
<path d="M19.7705 50.2997C15.3771 51.4364 11.6139 54.2694 9.3066 58.1772C6.9993 62.085 6.33629 66.7485 7.46302 71.1445L62.4995 284.872C63.6361 289.265 66.469 293.029 70.3768 295.336C74.2845 297.643 78.9479 298.306 83.3439 297.18L265.327 250.316C269.72 249.179 273.483 246.347 275.791 242.439C278.098 238.531 278.761 233.867 277.634 229.471L224.815 24.3534L186.732 7.30457L19.7705 50.2997Z" fill="white"/>
<path d="M230.222 20.5022L202.058 27.7549C200.002 28.2844 197.82 27.9754 195.991 26.8959C194.163 25.8164 192.839 24.0548 192.309 21.9987L186.952 1.19664C186.929 1.10557 186.932 1.00973 186.96 0.92012C186.989 0.830507 187.042 0.750749 187.114 0.689988C187.185 0.629228 187.273 0.589925 187.366 0.57659C187.459 0.563254 187.554 0.576423 187.64 0.614589L230.301 19.5604C230.395 19.6025 230.475 19.6732 230.528 19.7626C230.581 19.8519 230.605 19.9556 230.596 20.0591C230.587 20.1626 230.547 20.2609 230.48 20.3403C230.413 20.4197 230.323 20.4763 230.222 20.5022V20.5022Z" fill="#F2F2F2"/>
<path d="M215.405 203.021L132.551 224.357C132.042 224.488 131.512 224.518 130.991 224.444C130.471 224.37 129.97 224.195 129.518 223.928C129.065 223.66 128.669 223.307 128.353 222.886C128.038 222.466 127.808 221.988 127.676 221.479C127.545 220.97 127.516 220.44 127.59 219.92C127.663 219.399 127.839 218.898 128.106 218.446C128.373 217.993 128.727 217.598 129.147 217.282C129.567 216.966 130.045 216.736 130.554 216.605L213.409 195.268C213.918 195.137 214.448 195.108 214.968 195.181C215.489 195.255 215.989 195.431 216.442 195.698C216.895 195.965 217.29 196.319 217.606 196.739C217.922 197.159 218.152 197.637 218.283 198.146C218.414 198.655 218.444 199.185 218.37 199.706C218.296 200.226 218.121 200.727 217.854 201.18C217.586 201.632 217.233 202.028 216.813 202.344C216.392 202.66 215.914 202.89 215.405 203.021Z" fill="#CCCCCC"/>
<path d="M234.763 211.986L135.92 237.44C134.892 237.704 133.801 237.55 132.886 237.01C131.972 236.47 131.31 235.59 131.045 234.561C130.781 233.533 130.935 232.442 131.475 231.528C132.015 230.614 132.895 229.952 133.923 229.687L232.767 204.233C233.795 203.97 234.885 204.125 235.798 204.665C236.712 205.204 237.373 206.085 237.638 207.112C237.903 208.14 237.748 209.23 237.209 210.144C236.67 211.058 235.791 211.72 234.763 211.986V211.986Z" fill="#CCCCCC"/>
<path d="M98.7344 250.054C106.548 250.054 112.882 243.72 112.882 235.907C112.882 228.094 106.548 221.76 98.7344 221.76C90.9211 221.76 84.5872 228.094 84.5872 235.907C84.5872 243.72 90.9211 250.054 98.7344 250.054Z" fill="#E6E6E6"/>
<path d="M206.595 165.996L96.5566 194.322C93.3764 195.137 90.0029 194.657 87.1762 192.987C84.3495 191.318 82.3003 188.596 81.4784 185.417L58.4183 95.833C57.6035 92.6528 58.0834 89.2793 59.7528 86.4525C61.4222 83.6257 64.1446 81.5766 67.3229 80.7546L177.362 52.4285C180.542 51.6136 183.915 52.0936 186.742 53.763C189.569 55.4324 191.618 58.1549 192.44 61.3332L215.5 150.917C216.315 154.098 215.835 157.471 214.165 160.298C212.496 163.125 209.774 165.174 206.595 165.996Z" fill="white"/>
<path d="M206.595 165.996L96.5566 194.322C93.3764 195.137 90.0029 194.657 87.1762 192.987C84.3495 191.318 82.3003 188.596 81.4784 185.417L58.4183 95.833C57.6035 92.6528 58.0834 89.2793 59.7528 86.4525C61.4222 83.6257 64.1446 81.5766 67.3229 80.7546L177.362 52.4285C180.542 51.6136 183.915 52.0936 186.742 53.763C189.569 55.4324 191.618 58.1549 192.44 61.3332L215.5 150.917C216.315 154.098 215.835 157.471 214.165 160.298C212.496 163.125 209.774 165.174 206.595 165.996ZM67.6861 82.1654C64.8818 82.8907 62.4796 84.6987 61.0066 87.1929C59.5336 89.6872 59.1102 92.6638 59.8291 95.4699L82.8891 185.054C83.6144 187.858 85.4225 190.261 87.9166 191.734C90.4108 193.207 93.3874 193.63 96.1934 192.911L206.232 164.585C209.037 163.86 211.439 162.052 212.912 159.557C214.385 157.063 214.808 154.087 214.089 151.281L191.029 61.6964C190.304 58.892 188.496 56.4897 186.002 55.0168C183.507 53.5438 180.531 53.1203 177.725 53.8392L67.6861 82.1654Z" fill="#E6E6E6"/>
<path d="M171.779 82.5502L116.244 96.846C115.759 96.9816 115.24 96.9277 114.792 96.6954C114.345 96.463 114.003 96.0694 113.834 95.5943C113.756 95.3461 113.729 95.0845 113.755 94.8255C113.781 94.5665 113.86 94.3156 113.986 94.088C114.112 93.8604 114.284 93.6609 114.49 93.5017C114.696 93.3425 114.932 93.2269 115.184 93.162L171.715 78.6097C173.999 79.7668 173.398 82.1335 171.779 82.5504L171.779 82.5502Z" fill="#F2F2F2"/>
<path d="M174.287 92.2917L118.752 106.587C118.266 106.723 117.747 106.669 117.3 106.437C116.853 106.204 116.51 105.811 116.342 105.336C116.264 105.088 116.237 104.826 116.263 104.567C116.289 104.308 116.367 104.057 116.494 103.829C116.62 103.602 116.791 103.402 116.997 103.243C117.203 103.084 117.439 102.968 117.691 102.903L174.223 88.3512C176.506 89.5083 175.905 91.875 174.286 92.2918L174.287 92.2917Z" fill="#F2F2F2"/>
<path d="M108.174 115.224L91.2252 119.587C90.6717 119.729 90.0845 119.646 89.5924 119.355C89.1004 119.065 88.7437 118.591 88.6007 118.037L83.4522 98.0361C83.3103 97.4826 83.3938 96.8954 83.6844 96.4033C83.9749 95.9113 84.4489 95.5546 85.0021 95.4116L101.951 91.0486C102.504 90.9069 103.092 90.9905 103.584 91.2811C104.076 91.5716 104.432 92.0454 104.575 92.5986L109.724 112.6C109.866 113.153 109.782 113.741 109.492 114.233C109.201 114.725 108.727 115.081 108.174 115.224V115.224Z" fill="#E6E6E6"/>
<path d="M179.26 112.279L94.5027 134.097C94.0172 134.232 93.4983 134.178 93.051 133.946C92.6037 133.714 92.2612 133.32 92.0929 132.845C92.0146 132.597 91.9877 132.335 92.0138 132.076C92.0399 131.817 92.1184 131.566 92.2447 131.339C92.371 131.111 92.5424 130.912 92.7483 130.752C92.9542 130.593 93.1904 130.478 93.4425 130.413L179.196 108.338C181.48 109.495 180.879 111.862 179.26 112.279L179.26 112.279Z" fill="#F2F2F2"/>
<path d="M181.768 122.023L97.011 143.841C96.5255 143.977 96.0066 143.923 95.5593 143.69C95.112 143.458 94.7695 143.064 94.6012 142.589C94.5229 142.341 94.4959 142.079 94.522 141.82C94.5481 141.561 94.6267 141.311 94.753 141.083C94.8793 140.855 95.0506 140.656 95.2566 140.497C95.4625 140.337 95.6987 140.222 95.9508 140.157L181.704 118.082C183.988 119.239 183.387 121.606 181.768 122.023V122.023Z" fill="#F2F2F2"/>
<path d="M184.274 131.761L99.5177 153.579C99.0321 153.714 98.5133 153.661 98.0659 153.428C97.6186 153.196 97.2762 152.802 97.1079 152.327C97.0295 152.079 97.0026 151.817 97.0287 151.558C97.0548 151.299 97.1334 151.048 97.2597 150.821C97.3859 150.593 97.5573 150.394 97.7632 150.235C97.9691 150.075 98.2054 149.96 98.4574 149.895L184.211 127.82C186.495 128.977 185.894 131.344 184.274 131.761V131.761Z" fill="#F2F2F2"/>
<path d="M186.783 141.504L102.026 163.322C101.54 163.458 101.021 163.404 100.574 163.172C100.127 162.939 99.7843 162.546 99.616 162.071C99.5376 161.822 99.5107 161.561 99.5368 161.302C99.5629 161.043 99.6415 160.792 99.7678 160.564C99.894 160.337 100.065 160.137 100.271 159.978C100.477 159.819 100.713 159.703 100.966 159.638L186.719 137.564C189.003 138.721 188.402 141.088 186.783 141.504L186.783 141.504Z" fill="#F2F2F2"/>
<path d="M189.289 151.243L104.533 173.061C104.047 173.196 103.528 173.143 103.081 172.91C102.633 172.678 102.291 172.284 102.123 171.809C102.044 171.561 102.017 171.299 102.044 171.04C102.07 170.781 102.148 170.53 102.275 170.303C102.401 170.075 102.572 169.876 102.778 169.717C102.984 169.557 103.22 169.442 103.472 169.377L189.226 147.302C191.51 148.459 190.909 150.826 189.289 151.243V151.243Z" fill="#F2F2F2"/>
<path d="M99.7782 240.866C99.4701 240.946 99.1444 240.924 98.8502 240.802L98.8319 240.795L94.9779 239.161C94.7991 239.085 94.6369 238.975 94.5007 238.836C94.3644 238.698 94.2569 238.534 94.1841 238.354C94.1113 238.174 94.0747 237.981 94.0764 237.787C94.0782 237.593 94.1182 237.401 94.1942 237.222C94.2702 237.043 94.3807 236.881 94.5193 236.745C94.658 236.609 94.8221 236.502 95.0023 236.429C95.1825 236.357 95.3752 236.321 95.5695 236.323C95.7637 236.325 95.9556 236.365 96.1342 236.441L98.6315 237.504L101.904 229.805C101.98 229.627 102.09 229.465 102.229 229.329C102.367 229.193 102.531 229.086 102.711 229.013C102.891 228.941 103.083 228.904 103.277 228.906C103.471 228.908 103.663 228.948 103.841 229.024L103.842 229.024L103.822 229.074L103.842 229.024C104.203 229.177 104.487 229.468 104.634 229.831C104.78 230.194 104.776 230.601 104.623 230.961L100.773 240.013C100.684 240.222 100.548 240.407 100.376 240.555C100.203 240.702 99.999 240.808 99.779 240.864L99.7782 240.866Z" fill="white"/>
<path d="M336.854 338.463H148.934C142.561 338.456 136.452 335.921 131.946 331.415C127.44 326.909 124.905 320.799 124.898 314.427V93.7266C124.905 87.3539 127.44 81.2442 131.946 76.7381C136.452 72.2319 142.561 69.6971 148.934 69.6899H323.763L360.89 99.2833V314.427C360.883 320.799 358.348 326.909 353.842 331.415C349.336 335.921 343.227 338.456 336.854 338.463V338.463Z" fill="#E6E6E6"/>
<path d="M148.934 76.6095C144.396 76.6146 140.045 78.4196 136.836 81.6286C133.627 84.8376 131.822 89.1884 131.817 93.7265V314.427C131.822 318.965 133.627 323.315 136.836 326.524C140.045 329.733 144.396 331.538 148.934 331.544H336.854C341.392 331.538 345.743 329.733 348.952 326.524C352.161 323.315 353.966 318.965 353.971 314.427V102.617L321.342 76.6095H148.934Z" fill="white"/>
<path d="M300.304 140.783H214.746C213.685 140.783 212.667 140.361 211.916 139.611C211.165 138.86 210.744 137.842 210.744 136.78C210.744 135.719 211.165 134.701 211.916 133.95C212.667 133.199 213.685 132.778 214.746 132.778H300.304C301.365 132.778 302.383 133.199 303.134 133.95C303.885 134.701 304.306 135.719 304.306 136.78C304.306 137.842 303.885 138.86 303.134 139.611C302.383 140.361 301.365 140.783 300.304 140.783V140.783Z" fill="#0069E4"/>
<path d="M316.815 154.292H214.746C213.686 154.291 212.669 153.869 211.919 153.118C211.17 152.368 210.749 151.35 210.749 150.29C210.749 149.229 211.17 148.212 211.919 147.461C212.669 146.711 213.686 146.288 214.746 146.287H316.815C317.341 146.286 317.862 146.389 318.348 146.59C318.834 146.791 319.276 147.086 319.648 147.457C320.021 147.829 320.316 148.271 320.518 148.757C320.719 149.243 320.823 149.764 320.823 150.29C320.823 150.816 320.719 151.337 320.518 151.823C320.316 152.309 320.021 152.75 319.648 153.122C319.276 153.494 318.834 153.788 318.348 153.989C317.862 154.19 317.341 154.293 316.815 154.292V154.292Z" fill="#0069E4"/>
<path d="M300.304 193.317H214.75C213.688 193.317 212.67 193.739 211.919 194.489C211.169 195.24 210.747 196.258 210.747 197.319C210.747 198.381 211.169 199.399 211.919 200.15C212.67 200.9 213.688 201.322 214.75 201.322H300.304C301.366 201.322 302.384 200.9 303.134 200.15C303.885 199.399 304.306 198.381 304.306 197.319C304.306 196.258 303.885 195.24 303.134 194.489C302.384 193.739 301.366 193.317 300.304 193.317V193.317Z" fill="#CCCCCC"/>
<path d="M316.816 206.828H214.75C213.688 206.828 212.67 207.25 211.919 208.001C211.169 208.751 210.747 209.769 210.747 210.831C210.747 211.892 211.169 212.91 211.919 213.661C212.67 214.412 213.688 214.833 214.75 214.833H316.816C317.878 214.833 318.896 214.412 319.646 213.661C320.397 212.91 320.819 211.892 320.819 210.831C320.819 209.769 320.397 208.751 319.646 208.001C318.896 207.25 317.878 206.828 316.816 206.828Z" fill="#CCCCCC"/>
<path d="M300.304 261.866H214.746C213.685 261.866 212.667 261.444 211.916 260.694C211.165 259.943 210.744 258.925 210.744 257.863C210.744 256.802 211.165 255.784 211.916 255.033C212.667 254.282 213.685 253.861 214.746 253.861H300.304C301.365 253.861 302.383 254.282 303.134 255.033C303.885 255.784 304.306 256.802 304.306 257.863C304.306 258.925 303.885 259.943 303.134 260.694C302.383 261.444 301.365 261.866 300.304 261.866V261.866Z" fill="#CCCCCC"/>
<path d="M316.815 275.375H214.746C213.686 275.374 212.669 274.952 211.919 274.201C211.17 273.451 210.749 272.433 210.749 271.373C210.749 270.312 211.17 269.295 211.919 268.544C212.669 267.794 213.686 267.371 214.746 267.37H316.815C317.341 267.369 317.862 267.472 318.348 267.673C318.834 267.874 319.276 268.169 319.648 268.54C320.021 268.912 320.316 269.354 320.518 269.84C320.719 270.326 320.823 270.847 320.823 271.373C320.823 271.899 320.719 272.42 320.518 272.906C320.316 273.392 320.021 273.833 319.648 274.205C319.276 274.577 318.834 274.871 318.348 275.072C317.862 275.273 317.341 275.376 316.815 275.375Z" fill="#CCCCCC"/>
<path d="M179.118 157.683C186.931 157.683 193.265 151.349 193.265 143.535C193.265 135.722 186.931 129.388 179.118 129.388C171.305 129.388 164.971 135.722 164.971 143.535C164.971 151.349 171.305 157.683 179.118 157.683Z" fill="#0069E4"/>
<path d="M177.716 148.932C177.398 148.933 177.088 148.83 176.833 148.639L176.818 148.627L173.493 146.083C173.338 145.965 173.209 145.818 173.111 145.65C173.014 145.482 172.95 145.296 172.925 145.104C172.899 144.911 172.912 144.716 172.962 144.528C173.012 144.34 173.098 144.164 173.217 144.01C173.335 143.856 173.482 143.726 173.651 143.629C173.819 143.532 174.005 143.469 174.197 143.444C174.39 143.419 174.586 143.432 174.773 143.482C174.961 143.533 175.137 143.62 175.291 143.738L177.444 145.39L182.533 138.75C182.651 138.597 182.798 138.467 182.966 138.37C183.134 138.273 183.32 138.21 183.512 138.185C183.704 138.159 183.9 138.172 184.087 138.222C184.274 138.272 184.45 138.359 184.604 138.477L184.604 138.477L184.573 138.521L184.605 138.477C184.916 138.716 185.119 139.068 185.17 139.456C185.221 139.845 185.116 140.237 184.878 140.548L178.893 148.354C178.754 148.534 178.576 148.679 178.372 148.779C178.168 148.879 177.944 148.931 177.717 148.93L177.716 148.932Z" fill="white"/>
<path d="M194.719 204.075C194.72 205.933 194.355 207.773 193.644 209.49C192.934 211.207 191.892 212.767 190.578 214.081C189.265 215.396 187.705 216.438 185.989 217.15C184.272 217.861 182.432 218.227 180.574 218.228C180.453 218.23 180.331 218.225 180.21 218.213C177.428 218.142 174.73 217.251 172.451 215.654C170.173 214.056 168.416 211.822 167.401 209.231C166.386 206.64 166.158 203.808 166.745 201.088C167.331 198.368 168.707 195.881 170.7 193.939C172.693 191.997 175.215 190.686 177.949 190.17C180.683 189.654 183.509 189.955 186.073 191.037C188.637 192.119 190.824 193.933 192.362 196.252C193.9 198.571 194.72 201.292 194.719 204.075V204.075Z" fill="#CCCCCC"/>
<path d="M179.118 278.765C186.931 278.765 193.265 272.431 193.265 264.618C193.265 256.805 186.931 250.47 179.118 250.47C171.305 250.47 164.971 256.805 164.971 264.618C164.971 272.431 171.305 278.765 179.118 278.765Z" fill="#CCCCCC"/>
<path d="M360.168 100.236H331.084C328.961 100.236 326.925 99.3923 325.424 97.891C323.922 96.3897 323.079 94.3534 323.079 92.2302V70.7495C323.079 70.6554 323.106 70.5633 323.156 70.4836C323.205 70.404 323.277 70.34 323.362 70.299C323.446 70.2581 323.541 70.2419 323.634 70.2522C323.728 70.2625 323.816 70.2989 323.89 70.3573L360.478 99.3432C360.56 99.4077 360.619 99.4959 360.648 99.5957C360.677 99.6954 360.674 99.8017 360.64 99.8999C360.606 99.998 360.542 100.083 360.457 100.143C360.373 100.203 360.271 100.236 360.168 100.236Z" fill="#CCCCCC"/>
<path d="M194.719 204.075C194.72 205.933 194.355 207.773 193.644 209.49C192.934 211.207 191.892 212.767 190.578 214.081C189.265 215.396 187.705 216.438 185.989 217.15C184.272 217.861 182.432 218.227 180.574 218.227C180.453 218.23 180.331 218.225 180.21 218.213C178.383 213.654 177.678 208.723 178.156 203.835C178.634 198.946 180.28 194.245 182.956 190.126C186.247 190.691 189.233 192.4 191.385 194.952C193.538 197.505 194.719 200.736 194.719 204.075V204.075Z" fill="#0069E4"/>
<path d="M210.743 197.323C210.745 196.261 211.168 195.243 211.919 194.492C212.67 193.741 213.688 193.319 214.75 193.317H236.069C237.314 195.85 238.199 198.544 238.698 201.322H214.75C213.688 201.322 212.671 200.9 211.92 200.151C211.169 199.401 210.746 198.384 210.743 197.323V197.323Z" fill="#0069E4"/>
<path d="M239.194 206.828C239.195 209.532 238.838 212.224 238.13 214.833H214.75C213.688 214.833 212.67 214.412 211.919 213.661C211.169 212.91 210.747 211.892 210.747 210.831C210.747 209.769 211.169 208.751 211.919 208.001C212.67 207.25 213.688 206.828 214.75 206.828H239.194Z" fill="#0069E4"/>
<path d="M291.944 256.196C291.34 257.186 290.368 257.895 289.242 258.168C288.115 258.441 286.926 258.255 285.937 257.651L234.947 226.549C234.457 226.25 234.031 225.858 233.693 225.394C233.354 224.931 233.111 224.405 232.976 223.847C232.841 223.29 232.817 222.711 232.905 222.144C232.994 221.577 233.193 221.032 233.492 220.543C233.791 220.053 234.183 219.626 234.647 219.288C235.111 218.95 235.636 218.706 236.194 218.571C236.752 218.436 237.331 218.412 237.898 218.5C238.465 218.589 239.009 218.788 239.499 219.087L290.488 250.189C291.478 250.793 292.187 251.765 292.46 252.891C292.733 254.018 292.547 255.207 291.944 256.196V256.196Z" fill="#3F3D56"/>
<path d="M240.954 225.094C237.353 230.998 232.083 235.701 225.809 238.609C219.536 241.517 212.541 242.499 205.709 241.431C198.877 240.364 192.515 237.294 187.427 232.611C182.34 227.927 178.756 221.841 177.128 215.12C175.499 208.4 175.901 201.347 178.281 194.855C180.661 188.362 184.912 182.721 190.498 178.645C196.084 174.569 202.753 172.241 209.662 171.956C216.571 171.67 223.409 173.439 229.312 177.04C237.22 181.876 242.887 189.651 245.07 198.66C247.252 207.669 245.772 217.175 240.954 225.094ZM188.721 193.233C186.02 197.661 184.693 202.79 184.908 207.972C185.122 213.153 186.868 218.155 189.925 222.345C192.982 226.534 197.212 229.723 202.082 231.508C206.951 233.293 212.24 233.594 217.28 232.373C222.321 231.152 226.886 228.463 230.398 224.648C233.911 220.832 236.213 216.061 237.013 210.937C237.814 205.813 237.077 200.566 234.897 195.861C232.716 191.156 229.188 187.203 224.761 184.502C218.822 180.889 211.692 179.779 204.935 181.415C198.179 183.052 192.348 187.302 188.721 193.233V193.233Z" fill="#3F3D56"/>
<path d="M352.971 212.494C362.851 212.494 370.861 204.484 370.861 194.604C370.861 184.724 362.851 176.714 352.971 176.714C343.091 176.714 335.082 184.724 335.082 194.604C335.082 204.484 343.091 212.494 352.971 212.494Z" fill="#A0616A"/>
<path d="M351.815 294.896C351.47 293.821 351.356 292.685 351.481 291.563C351.605 290.441 351.965 289.358 352.538 288.385C353.11 287.411 353.882 286.57 354.802 285.916C355.722 285.262 356.77 284.809 357.877 284.588C358.228 284.52 358.583 284.476 358.94 284.457L377.784 254.213L360.571 237.848C359.913 237.223 359.386 236.474 359.019 235.643C358.653 234.813 358.454 233.919 358.436 233.011C358.417 232.104 358.578 231.202 358.91 230.357C359.241 229.513 359.737 228.742 360.368 228.09C360.999 227.438 361.754 226.918 362.587 226.559C363.421 226.2 364.317 226.01 365.224 225.999C366.132 225.988 367.032 226.158 367.874 226.497C368.715 226.837 369.481 227.339 370.128 227.977L393.894 251.411L393.942 251.47C394.677 252.588 395.032 253.914 394.954 255.251C394.876 256.587 394.369 257.862 393.509 258.888L367.105 290.116C367.184 290.366 367.25 290.621 367.302 290.878C367.523 291.985 367.507 293.126 367.256 294.227C367.005 295.328 366.524 296.363 365.845 297.265C365.166 298.167 364.304 298.916 363.315 299.461C362.327 300.007 361.234 300.337 360.109 300.431C359.882 300.451 359.655 300.461 359.43 300.461C357.737 300.454 356.088 299.912 354.721 298.913C353.353 297.913 352.336 296.508 351.815 294.896V294.896Z" fill="#A0616A"/>
<path d="M323.507 443.586L314.577 443.585L310.329 409.141L323.509 409.142L323.507 443.586Z" fill="#A0616A"/>
<path d="M325.784 452.242L296.991 452.241V451.877C296.991 450.405 297.281 448.948 297.844 447.588C298.408 446.228 299.233 444.993 300.274 443.952C301.315 442.911 302.55 442.086 303.91 441.523C305.269 440.96 306.727 440.67 308.199 440.67H308.199L325.785 440.67L325.784 452.242Z" fill="#2F2E41"/>
<path d="M412.264 431.239L404.591 435.808L383.319 408.387L394.643 401.644L412.264 431.239Z" fill="#A0616A"/>
<path d="M418.649 437.512L393.909 452.242L393.723 451.929C392.97 450.664 392.473 449.264 392.261 447.808C392.05 446.351 392.127 444.867 392.488 443.441C392.85 442.014 393.489 440.673 394.37 439.493C395.25 438.313 396.354 437.319 397.618 436.566L397.619 436.566L412.729 427.569L418.649 437.512Z" fill="#2F2E41"/>
<path d="M309.203 428.417C303.221 357.978 299.662 292.541 321.53 265.847L321.699 265.64L358.501 280.361L358.561 280.493C358.686 280.763 370.925 307.685 368.07 325.794L377.147 367.551L406.745 417.111C406.983 417.51 407.134 417.955 407.187 418.416C407.241 418.878 407.195 419.346 407.054 419.788C406.913 420.231 406.679 420.639 406.368 420.984C406.057 421.33 405.677 421.605 405.251 421.792L392.389 427.452C391.663 427.767 390.848 427.811 390.092 427.575C389.337 427.339 388.691 426.839 388.275 426.166L356.078 373.664L337.892 333.394C337.793 333.176 337.625 332.996 337.414 332.882C337.203 332.768 336.96 332.727 336.723 332.765C336.486 332.803 336.268 332.918 336.103 333.092C335.938 333.266 335.835 333.49 335.81 333.729L325.729 428.489C325.645 429.294 325.265 430.039 324.663 430.581C324.061 431.122 323.279 431.421 322.47 431.42H312.47C311.65 431.415 310.861 431.105 310.257 430.55C309.652 429.994 309.277 429.234 309.203 428.417V428.417Z" fill="#2F2E41"/>
<path d="M321.654 266.405L321.479 266.321L321.451 266.128C320.077 256.506 321.704 245.815 326.288 234.353C328.547 228.742 332.747 224.131 338.121 221.357C343.496 218.584 349.688 217.834 355.57 219.244V219.244C358.958 220.079 362.135 221.608 364.901 223.735C367.667 225.862 369.961 228.54 371.638 231.6C373.293 234.628 374.302 237.968 374.599 241.406C374.897 244.845 374.477 248.308 373.366 251.576C367.588 268.474 360.091 284.285 360.016 284.443L359.859 284.773L321.654 266.405Z" fill="#0069E4"/>
<path d="M281.502 242.439C282.388 241.739 283.412 241.235 284.507 240.958C285.601 240.682 286.742 240.64 287.854 240.836C288.966 241.031 290.024 241.459 290.959 242.092C291.894 242.725 292.685 243.548 293.28 244.507C293.466 244.812 293.632 245.129 293.774 245.457L328.703 252.517L338.003 230.663C338.358 229.828 338.875 229.071 339.525 228.437C340.174 227.803 340.942 227.304 341.785 226.969C342.629 226.633 343.53 226.468 344.437 226.483C345.345 226.498 346.24 226.693 347.072 227.056C347.904 227.419 348.655 227.943 349.283 228.598C349.911 229.253 350.403 230.026 350.731 230.872C351.059 231.718 351.215 232.621 351.192 233.528C351.169 234.435 350.966 235.329 350.596 236.157L336.968 266.626L336.93 266.691C336.14 267.771 335.022 268.568 333.743 268.963C332.464 269.358 331.092 269.33 329.83 268.883L291.334 255.087C291.127 255.249 290.912 255.399 290.689 255.538C289.729 256.133 288.655 256.518 287.536 256.668C286.417 256.818 285.278 256.731 284.196 256.41C283.113 256.09 282.11 255.545 281.253 254.81C280.396 254.075 279.704 253.167 279.222 252.146C279.123 251.94 279.035 251.732 278.956 251.521C278.369 249.932 278.3 248.198 278.757 246.567C279.214 244.936 280.175 243.491 281.502 242.439V242.439Z" fill="#A0616A"/>
<path d="M417.599 213.762C415.876 210.709 413.365 207.913 410.046 206.784C405.76 205.327 401.119 206.878 396.712 207.915C393.316 208.713 389.769 209.202 386.347 208.528C382.925 207.854 379.623 205.863 378.066 202.742C375.776 198.15 377.705 192.675 377.566 187.546C377.494 184.753 376.79 182.014 375.505 179.534C374.221 177.053 372.391 174.897 370.152 173.227C367.913 171.557 365.324 170.417 362.581 169.893C359.837 169.369 357.011 169.475 354.314 170.202C350.094 168.985 346.273 168.872 343.663 172.116C340.379 172.116 337.23 173.421 334.908 175.743C332.585 178.065 331.281 181.214 331.281 184.498H343.121C342.56 187.518 343.201 190.636 344.908 193.189C346.998 196.26 350.633 198.481 351.332 202.129C352.011 205.664 349.608 209.019 347.087 211.588C344.566 214.158 341.642 216.704 340.855 220.217C340.373 222.883 340.92 225.634 342.387 227.912C343.851 230.163 345.668 232.164 347.767 233.838C357.225 241.941 368.466 247.692 380.571 250.62C389.096 252.673 398.421 253.205 406.334 249.429C409.5 247.919 412.322 245.773 414.623 243.126C416.925 240.479 418.658 237.388 419.714 234.043C420.771 230.698 421.128 227.171 420.764 223.683C420.4 220.194 419.323 216.817 417.599 213.762V213.762Z" fill="#2F2E41"/>
<path d="M420.272 453H281.881C281.688 453 281.502 452.923 281.366 452.787C281.229 452.65 281.153 452.465 281.153 452.272C281.153 452.078 281.229 451.893 281.366 451.757C281.502 451.62 281.688 451.543 281.881 451.543H420.272C420.465 451.543 420.65 451.62 420.787 451.757C420.923 451.893 421 452.078 421 452.272C421 452.465 420.923 452.65 420.787 452.787C420.65 452.923 420.465 453 420.272 453Z" fill="#CCCCCC"/>
</g>
<defs>
<clipPath id="clip0">
<rect width="421" height="453" fill="white"/>
</clipPath>
</defs>
</svg>
