<svg width="620" height="667" viewBox="0 0 620 667" fill="none" xmlns="http://www.w3.org/2000/svg">
<path d="M393.283 378.434L125.28 447.436C116.189 449.765 106.545 448.394 98.4635 443.624C90.3822 438.853 84.5236 431.072 82.173 421.988L1.1217 107.294C-1.20838 98.2051 0.162742 88.5627 4.93429 80.4828C9.70584 72.4029 17.4881 66.5453 26.5738 64.1951L275.907 0L339.725 28.5641L418.735 335.334C421.066 344.424 419.694 354.066 414.923 362.146C410.151 370.226 402.369 376.083 393.283 378.434Z" fill="#F2F2F2"/>
<path d="M29.1157 74.0617C22.6456 75.7353 17.1037 79.9067 13.7057 85.6605C10.3078 91.4144 9.3314 98.2809 10.9907 104.754L92.042 419.447C93.7159 425.916 97.888 431.457 103.643 434.855C109.398 438.252 116.265 439.228 122.739 437.569L390.743 368.567C397.213 366.893 402.755 362.722 406.153 356.968C409.551 351.214 410.527 344.348 408.868 337.875L331.081 35.8582L274.997 10.7554L29.1157 74.0617Z" fill="white"/>
<path d="M339.045 30.1875L297.567 40.8665C294.54 41.6461 291.326 41.1912 288.633 39.6017C285.941 38.0122 283.99 35.4185 283.211 32.3911L275.322 1.76197C275.287 1.62787 275.291 1.48676 275.333 1.35481C275.375 1.22287 275.454 1.10543 275.559 1.01597C275.665 0.926502 275.794 0.868633 275.931 0.848998C276.068 0.829363 276.208 0.848752 276.334 0.904949L339.16 28.8008C339.3 28.8629 339.417 28.967 339.495 29.0985C339.573 29.2301 339.608 29.3827 339.595 29.5351C339.582 29.6876 339.523 29.8323 339.424 29.9492C339.325 30.0661 339.193 30.1494 339.045 30.1875Z" fill="#F2F2F2"/>
<path d="M317.224 298.929L195.206 330.345C194.456 330.538 193.676 330.581 192.909 330.473C192.143 330.364 191.405 330.106 190.738 329.712C190.072 329.319 189.489 328.798 189.024 328.179C188.559 327.561 188.22 326.857 188.027 326.107C187.834 325.358 187.791 324.577 187.899 323.811C188.008 323.045 188.266 322.307 188.66 321.641C189.053 320.974 189.574 320.392 190.193 319.927C190.812 319.462 191.516 319.123 192.266 318.93L314.284 287.514C315.033 287.321 315.814 287.278 316.58 287.386C317.347 287.495 318.084 287.753 318.751 288.147C319.417 288.54 320 289.061 320.465 289.68C320.93 290.298 321.269 291.002 321.462 291.752C321.655 292.501 321.699 293.282 321.59 294.048C321.482 294.814 321.223 295.552 320.83 296.218C320.436 296.885 319.915 297.467 319.296 297.932C318.678 298.397 317.973 298.736 317.224 298.929Z" fill="#CCCCCC"/>
<path d="M345.732 312.129L200.167 349.607C198.653 349.997 197.046 349.77 195.7 348.975C194.353 348.18 193.378 346.883 192.988 345.37C192.598 343.856 192.826 342.249 193.621 340.903C194.416 339.557 195.713 338.582 197.227 338.193L342.792 300.714C344.306 300.326 345.911 300.554 347.257 301.349C348.602 302.144 349.576 303.44 349.966 304.953C350.355 306.466 350.128 308.072 349.334 309.417C348.541 310.763 347.245 311.738 345.732 312.129Z" fill="#CCCCCC"/>
<path d="M145.405 368.182C156.911 368.182 166.239 358.855 166.239 347.351C166.239 335.846 156.911 326.52 145.405 326.52C133.898 326.52 124.57 335.846 124.57 347.351C124.57 358.855 133.898 368.182 145.405 368.182Z" fill="#E6E6E6"/>
<path d="M304.25 244.413L142.197 286.121C137.514 287.321 132.546 286.614 128.383 284.156C124.22 281.698 121.202 277.689 119.992 273.009L86.0317 141.105C84.8318 136.423 85.5386 131.455 87.997 127.293C90.4555 123.131 94.4648 120.114 99.1454 118.904L261.198 77.1959C265.881 75.9962 270.849 76.7029 275.012 79.1609C279.175 81.6189 282.193 85.6276 283.403 90.3074L317.363 222.212C318.563 226.894 317.857 231.861 315.398 236.024C312.94 240.186 308.93 243.203 304.25 244.413Z" fill="white"/>
<path d="M304.25 244.413L142.197 286.121C137.514 287.321 132.546 286.614 128.383 284.156C124.22 281.698 121.202 277.689 119.992 273.009L86.0317 141.105C84.8318 136.423 85.5386 131.455 87.997 127.293C90.4555 123.131 94.4648 120.114 99.1454 118.904L261.198 77.1959C265.881 75.9962 270.849 76.7029 275.012 79.1609C279.175 81.6189 282.193 85.6276 283.403 90.3074L317.363 222.212C318.563 226.894 317.857 231.861 315.398 236.024C312.94 240.186 308.93 243.203 304.25 244.413ZM99.6803 120.981C95.5503 122.049 92.0127 124.711 89.8435 128.383C87.6743 132.056 87.0506 136.439 88.1094 140.57L122.07 272.475C123.138 276.604 125.8 280.141 129.473 282.31C133.147 284.479 137.53 285.102 141.663 284.044L303.715 242.336C307.845 241.268 311.383 238.606 313.552 234.933C315.721 231.261 316.345 226.878 315.286 222.746L281.326 90.8421C280.258 86.7128 277.595 83.1758 273.922 81.007C270.249 78.8381 265.865 78.2146 261.733 79.2732L99.6803 120.981Z" fill="#E6E6E6"/>
<path d="M252.977 121.547L171.191 142.597C170.476 142.796 169.712 142.717 169.053 142.375C168.394 142.033 167.89 141.453 167.642 140.754C167.527 140.388 167.487 140.003 167.525 139.622C167.564 139.24 167.68 138.871 167.866 138.536C168.052 138.201 168.304 137.907 168.607 137.672C168.91 137.438 169.258 137.268 169.63 137.172L252.882 115.745C256.245 117.449 255.36 120.934 252.976 121.548L252.977 121.547Z" fill="#F2F2F2"/>
<path d="M256.669 135.891L174.884 156.94C174.169 157.14 173.405 157.06 172.746 156.718C172.087 156.376 171.583 155.797 171.335 155.097C171.22 154.731 171.18 154.346 171.218 153.965C171.257 153.584 171.372 153.214 171.558 152.879C171.744 152.544 171.997 152.25 172.3 152.016C172.603 151.781 172.951 151.611 173.322 151.516L256.575 130.089C259.938 131.792 259.053 135.277 256.668 135.891L256.669 135.891Z" fill="#F2F2F2"/>
<path d="M159.306 169.657L134.346 176.081C133.531 176.29 132.666 176.167 131.941 175.739C131.217 175.311 130.691 174.613 130.481 173.799L122.899 144.349C122.69 143.534 122.813 142.669 123.241 141.945C123.668 141.22 124.366 140.695 125.181 140.485L150.141 134.06C150.957 133.852 151.821 133.975 152.546 134.403C153.27 134.831 153.796 135.528 154.006 136.343L161.589 165.793C161.798 166.608 161.675 167.472 161.247 168.197C160.819 168.921 160.121 169.446 159.306 169.657V169.657Z" fill="#E6E6E6"/>
<path d="M263.993 165.32L139.173 197.445C138.458 197.644 137.693 197.565 137.035 197.223C136.376 196.881 135.872 196.301 135.624 195.602C135.508 195.236 135.469 194.851 135.507 194.47C135.546 194.088 135.661 193.719 135.847 193.384C136.033 193.049 136.286 192.755 136.589 192.521C136.892 192.286 137.24 192.116 137.611 192.02L263.899 159.518C267.262 161.221 266.377 164.706 263.993 165.32L263.993 165.32Z" fill="#F2F2F2"/>
<path d="M267.687 179.667L142.867 211.792C142.152 211.992 141.388 211.913 140.729 211.57C140.07 211.228 139.566 210.649 139.318 209.949C139.202 209.584 139.163 209.199 139.201 208.817C139.24 208.436 139.355 208.067 139.541 207.731C139.727 207.396 139.98 207.103 140.283 206.868C140.586 206.634 140.934 206.464 141.305 206.368L267.593 173.865C270.956 175.569 270.071 179.054 267.687 179.667V179.667Z" fill="#F2F2F2"/>
<path d="M271.378 194.005L146.558 226.131C145.843 226.33 145.079 226.251 144.42 225.909C143.761 225.567 143.257 224.987 143.009 224.287C142.894 223.922 142.854 223.537 142.893 223.155C142.931 222.774 143.047 222.405 143.233 222.07C143.419 221.734 143.671 221.441 143.974 221.206C144.278 220.972 144.625 220.802 144.997 220.706L271.285 188.203C274.648 189.907 273.763 193.392 271.378 194.005Z" fill="#F2F2F2"/>
<path d="M275.072 208.352L150.252 240.477C149.537 240.676 148.773 240.597 148.114 240.255C147.455 239.913 146.951 239.333 146.703 238.634C146.587 238.268 146.548 237.883 146.586 237.502C146.625 237.121 146.74 236.751 146.926 236.416C147.112 236.081 147.365 235.787 147.668 235.553C147.971 235.318 148.319 235.148 148.69 235.053L274.978 202.55C278.341 204.253 277.457 207.738 275.072 208.352L275.072 208.352Z" fill="#F2F2F2"/>
<path d="M278.763 222.691L153.943 254.816C153.228 255.016 152.464 254.936 151.805 254.594C151.147 254.252 150.642 253.673 150.394 252.973C150.279 252.607 150.239 252.222 150.278 251.841C150.316 251.46 150.432 251.09 150.618 250.755C150.804 250.42 151.056 250.126 151.36 249.892C151.663 249.657 152.011 249.487 152.382 249.392L278.67 216.889C282.033 218.593 281.148 222.077 278.763 222.691Z" fill="#F2F2F2"/>
<path d="M146.942 354.653C146.488 354.77 146.008 354.737 145.575 354.559L145.548 354.547L139.872 352.142C139.609 352.03 139.37 351.868 139.17 351.664C138.969 351.46 138.81 351.219 138.703 350.954C138.596 350.689 138.542 350.405 138.545 350.119C138.547 349.833 138.606 349.55 138.718 349.287C138.83 349.024 138.993 348.785 139.197 348.585C139.401 348.385 139.643 348.227 139.908 348.12C140.174 348.013 140.457 347.96 140.744 347.963C141.03 347.966 141.312 348.025 141.575 348.138L145.253 349.702L150.072 338.366C150.184 338.104 150.347 337.865 150.55 337.665C150.754 337.465 150.996 337.307 151.26 337.2C151.525 337.094 151.809 337.04 152.094 337.043C152.38 337.045 152.662 337.104 152.925 337.216L152.926 337.216L152.897 337.29L152.927 337.216C153.457 337.442 153.877 337.87 154.092 338.405C154.308 338.939 154.302 339.538 154.077 340.069L148.407 353.397C148.276 353.704 148.075 353.977 147.821 354.194C147.567 354.412 147.267 354.567 146.943 354.65L146.942 354.653Z" fill="white"/>
<path d="M496.08 498.355H219.333C209.948 498.345 200.951 494.613 194.315 487.978C187.678 481.343 183.946 472.347 183.935 462.964V138.004C183.946 128.62 187.678 119.624 194.315 112.99C200.951 106.355 209.948 102.622 219.333 102.612H476.801L531.478 146.185V462.964C531.467 472.347 527.734 481.343 521.098 487.978C514.462 494.613 505.465 498.345 496.08 498.355Z" fill="#E6E6E6"/>
<path d="M219.333 112.8C212.649 112.808 206.242 115.466 201.516 120.19C196.791 124.915 194.133 131.321 194.125 138.003V462.964C194.133 469.646 196.791 476.052 201.516 480.777C206.242 485.501 212.649 488.159 219.333 488.167H496.079C502.763 488.159 509.17 485.501 513.896 480.777C518.621 476.052 521.279 469.646 521.287 462.964V151.094L473.236 112.8H219.333Z" fill="white"/>
<path d="M442.252 207.29H316.253C314.69 207.29 313.191 206.669 312.085 205.564C310.98 204.458 310.359 202.959 310.359 201.396C310.359 199.833 310.98 198.334 312.085 197.229C313.191 196.124 314.69 195.503 316.253 195.503H442.252C443.816 195.503 445.315 196.124 446.42 197.229C447.526 198.334 448.147 199.833 448.147 201.396C448.147 202.959 447.526 204.458 446.42 205.564C445.315 206.669 443.816 207.29 442.252 207.29Z" fill="#0069E4"/>
<path d="M466.568 227.181H316.253C314.691 227.179 313.194 226.557 312.09 225.452C310.987 224.347 310.367 222.849 310.367 221.288C310.367 219.726 310.987 218.228 312.09 217.123C313.194 216.018 314.691 215.396 316.253 215.394H466.568C467.343 215.393 468.11 215.545 468.826 215.84C469.542 216.136 470.193 216.57 470.741 217.117C471.29 217.665 471.724 218.315 472.021 219.03C472.318 219.746 472.471 220.513 472.471 221.288C472.471 222.062 472.318 222.829 472.021 223.545C471.724 224.26 471.29 224.91 470.741 225.458C470.193 226.005 469.542 226.439 468.826 226.735C468.11 227.031 467.343 227.182 466.568 227.181Z" fill="#0069E4"/>
<path d="M442.253 284.641H316.258C314.695 284.641 313.196 285.262 312.09 286.367C310.985 287.472 310.364 288.971 310.364 290.534C310.364 292.097 310.985 293.596 312.09 294.701C313.196 295.807 314.695 296.427 316.258 296.427H442.253C443.816 296.427 445.315 295.807 446.421 294.701C447.526 293.596 448.147 292.097 448.147 290.534C448.147 288.971 447.526 287.472 446.421 286.367C445.315 285.262 443.816 284.641 442.253 284.641Z" fill="#CCCCCC"/>
<path d="M466.57 304.535H316.258C314.695 304.535 313.196 305.156 312.09 306.262C310.985 307.367 310.364 308.866 310.364 310.429C310.364 311.992 310.985 313.491 312.09 314.596C313.196 315.701 314.695 316.322 316.258 316.322H466.57C468.134 316.322 469.633 315.701 470.738 314.596C471.844 313.491 472.465 311.992 472.465 310.429C472.465 308.866 471.844 307.367 470.738 306.262C469.633 305.156 468.134 304.535 466.57 304.535Z" fill="#CCCCCC"/>
<path d="M442.252 385.573H316.253C314.69 385.573 313.191 384.952 312.085 383.847C310.98 382.742 310.359 381.243 310.359 379.68C310.359 378.117 310.98 376.617 312.085 375.512C313.191 374.407 314.69 373.786 316.253 373.786H442.252C443.816 373.786 445.315 374.407 446.42 375.512C447.526 376.617 448.147 378.117 448.147 379.68C448.147 381.243 447.526 382.742 446.42 383.847C445.315 384.952 443.816 385.573 442.252 385.573Z" fill="#CCCCCC"/>
<path d="M466.568 405.464H316.253C314.691 405.462 313.194 404.84 312.09 403.735C310.987 402.63 310.367 401.133 310.367 399.571C310.367 398.009 310.987 396.511 312.09 395.406C313.194 394.301 314.691 393.679 316.253 393.677H466.568C467.343 393.676 468.11 393.828 468.826 394.123C469.542 394.419 470.193 394.853 470.741 395.401C471.29 395.948 471.724 396.598 472.021 397.314C472.318 398.029 472.471 398.796 472.471 399.571C472.471 400.345 472.318 401.112 472.021 401.828C471.724 402.544 471.29 403.194 470.741 403.741C470.193 404.288 469.542 404.722 468.826 405.018C468.11 405.314 467.343 405.465 466.568 405.464Z" fill="#CCCCCC"/>
<path d="M263.784 232.173C275.291 232.173 284.619 222.846 284.619 211.342C284.619 199.837 275.291 190.511 263.784 190.511C252.278 190.511 242.95 199.837 242.95 211.342C242.95 222.846 252.278 232.173 263.784 232.173Z" fill="#0069E4"/>
<path d="M261.72 219.288C261.251 219.289 260.795 219.137 260.42 218.856L260.396 218.839L255.5 215.094C255.273 214.92 255.082 214.704 254.938 214.456C254.794 214.209 254.701 213.935 254.663 213.652C254.626 213.368 254.644 213.08 254.718 212.804C254.792 212.527 254.919 212.268 255.093 212.041C255.267 211.814 255.485 211.623 255.732 211.48C255.98 211.337 256.254 211.245 256.538 211.207C256.821 211.17 257.11 211.189 257.386 211.264C257.662 211.338 257.921 211.466 258.148 211.641L261.319 214.073L268.814 204.297C268.987 204.07 269.204 203.88 269.451 203.737C269.699 203.594 269.972 203.502 270.255 203.464C270.538 203.427 270.826 203.445 271.102 203.519C271.378 203.593 271.636 203.721 271.863 203.894L271.864 203.895L271.817 203.959L271.865 203.895C272.322 204.246 272.622 204.765 272.697 205.336C272.772 205.908 272.618 206.486 272.267 206.944L263.452 218.437C263.248 218.702 262.986 218.916 262.686 219.064C262.386 219.211 262.056 219.287 261.722 219.286L261.72 219.288Z" fill="white"/>
<path d="M286.76 300.481C286.761 303.217 286.223 305.927 285.177 308.455C284.13 310.983 282.596 313.28 280.662 315.215C278.727 317.15 276.431 318.685 273.903 319.732C271.375 320.78 268.665 321.319 265.929 321.32C265.75 321.323 265.571 321.316 265.393 321.298C261.296 321.193 257.321 319.882 253.966 317.53C250.611 315.178 248.024 311.889 246.529 308.074C245.034 304.259 244.698 300.088 245.562 296.083C246.426 292.078 248.453 288.416 251.388 285.557C254.323 282.698 258.036 280.767 262.063 280.007C266.09 279.247 270.251 279.692 274.027 281.285C277.802 282.878 281.024 285.548 283.289 288.963C285.554 292.378 286.761 296.384 286.76 300.481Z" fill="#CCCCCC"/>
<path d="M263.784 410.456C275.291 410.456 284.619 401.13 284.619 389.625C284.619 378.121 275.291 368.794 263.784 368.794C252.278 368.794 242.95 378.121 242.95 389.625C242.95 401.13 252.278 410.456 263.784 410.456Z" fill="#CCCCCC"/>
<path d="M530.413 147.588H487.583C484.456 147.588 481.457 146.346 479.246 144.135C477.036 141.925 475.793 138.926 475.793 135.8V104.172C475.793 104.033 475.832 103.898 475.906 103.78C475.98 103.663 476.085 103.569 476.21 103.509C476.334 103.448 476.473 103.424 476.611 103.44C476.749 103.455 476.879 103.508 476.988 103.594L530.871 146.273C530.991 146.368 531.078 146.498 531.121 146.645C531.163 146.792 531.159 146.949 531.109 147.093C531.059 147.238 530.965 147.363 530.84 147.451C530.715 147.54 530.566 147.588 530.413 147.588Z" fill="#CCCCCC"/>
<path d="M286.76 300.481C286.761 303.217 286.223 305.927 285.177 308.454C284.13 310.982 282.596 313.28 280.662 315.215C278.727 317.15 276.43 318.685 273.903 319.732C271.375 320.78 268.665 321.319 265.929 321.32C265.75 321.323 265.571 321.316 265.393 321.298C262.701 314.586 261.663 307.325 262.367 300.127C263.071 292.93 265.496 286.007 269.437 279.943C274.283 280.774 278.68 283.291 281.85 287.049C285.02 290.807 286.759 295.565 286.76 300.481Z" fill="#0069E4"/>
<path d="M310.358 290.54C310.361 288.976 310.984 287.477 312.089 286.372C313.195 285.266 314.694 284.644 316.258 284.641H347.655C349.489 288.37 350.792 292.337 351.527 296.427H316.258C314.695 296.427 313.197 295.807 312.091 294.703C310.985 293.599 310.362 292.102 310.358 290.54Z" fill="#0069E4"/>
<path d="M352.257 304.535C352.259 308.516 351.732 312.48 350.691 316.322H316.258C314.695 316.322 313.196 315.701 312.09 314.596C310.985 313.491 310.364 311.992 310.364 310.429C310.364 308.866 310.985 307.367 312.09 306.262C313.196 305.156 314.695 304.535 316.258 304.535H352.257Z" fill="#0069E4"/>
<path d="M429.941 377.225C429.052 378.682 427.621 379.726 425.962 380.128C424.303 380.53 422.552 380.256 421.095 379.368L346.003 333.573C345.282 333.133 344.654 332.555 344.156 331.872C343.657 331.19 343.299 330.416 343.1 329.594C342.901 328.773 342.865 327.921 342.996 327.086C343.126 326.251 343.42 325.45 343.86 324.728C344.3 324.007 344.878 323.379 345.561 322.881C346.244 322.383 347.018 322.024 347.839 321.825C348.661 321.626 349.513 321.591 350.348 321.721C351.183 321.852 351.985 322.146 352.706 322.586L427.798 368.381C429.255 369.269 430.299 370.7 430.701 372.359C431.103 374.018 430.83 375.768 429.941 377.225Z" fill="#3F3D56"/>
<path d="M354.849 331.43C349.546 340.122 341.785 347.047 332.546 351.329C323.306 355.61 313.005 357.057 302.944 355.485C292.882 353.913 283.513 349.393 276.021 342.497C268.529 335.602 263.251 326.639 260.853 316.744C258.455 306.849 259.046 296.465 262.551 286.905C266.056 277.346 272.317 269.04 280.543 263.038C288.769 257.037 298.591 253.609 308.765 253.188C318.94 252.768 329.011 255.373 337.705 260.675C349.35 267.795 357.696 279.243 360.91 292.508C364.124 305.772 361.944 319.77 354.849 331.43ZM277.926 284.518C273.949 291.037 271.995 298.589 272.31 306.219C272.626 313.848 275.197 321.213 279.699 327.381C284.201 333.55 290.432 338.245 297.602 340.873C304.773 343.502 312.563 343.945 319.985 342.147C327.408 340.349 334.131 336.39 339.304 330.772C344.476 325.154 347.867 318.129 349.046 310.584C350.225 303.039 349.14 295.315 345.928 288.387C342.716 281.459 337.522 275.638 331.002 271.662C322.255 266.341 311.755 264.707 301.805 267.117C291.855 269.527 283.267 275.785 277.926 284.518Z" fill="#3F3D56"/>
<path d="M519.815 312.877C534.366 312.877 546.161 301.084 546.161 286.536C546.161 271.988 534.366 260.195 519.815 260.195C505.265 260.195 493.47 271.988 493.47 286.536C493.47 301.084 505.265 312.877 519.815 312.877Z" fill="#A0616A"/>
<path d="M518.113 434.207C517.605 432.624 517.437 430.952 517.62 429.299C517.804 427.647 518.334 426.052 519.177 424.619C520.02 423.187 521.156 421.948 522.511 420.985C523.866 420.021 525.409 419.355 527.04 419.03C527.556 418.929 528.08 418.865 528.605 418.837L556.357 374.304L531.007 350.209C530.039 349.288 529.262 348.185 528.722 346.963C528.182 345.74 527.89 344.423 527.863 343.087C527.835 341.752 528.072 340.423 528.561 339.18C529.049 337.936 529.779 336.801 530.709 335.841C531.638 334.881 532.749 334.115 533.976 333.587C535.204 333.058 536.524 332.778 537.86 332.762C539.196 332.747 540.522 332.996 541.762 333.496C543.001 333.996 544.129 334.736 545.081 335.674L580.081 370.18L580.152 370.266C581.235 371.913 581.757 373.865 581.642 375.833C581.527 377.8 580.781 379.678 579.514 381.188L540.63 427.169C540.746 427.537 540.843 427.912 540.92 428.29C541.245 429.921 541.222 431.601 540.852 433.222C540.482 434.843 539.774 436.367 538.774 437.695C537.774 439.024 536.505 440.125 535.049 440.929C533.593 441.732 531.984 442.219 530.327 442.357C529.992 442.386 529.659 442.401 529.327 442.401C526.833 442.391 524.406 441.593 522.392 440.121C520.378 438.65 518.88 436.58 518.113 434.207Z" fill="#A0616A"/>
<path d="M476.424 653.139L463.273 653.138L457.017 602.422L476.426 602.423L476.424 653.139Z" fill="#A0616A"/>
<path d="M479.777 665.884L437.375 665.882V665.346C437.374 663.179 437.801 661.033 438.631 659.031C439.46 657.029 440.676 655.21 442.208 653.678C443.741 652.145 445.561 650.93 447.563 650.101C449.565 649.272 451.712 648.845 453.879 648.845H453.88L479.778 648.846L479.777 665.884Z" fill="#2F2E41"/>
<path d="M607.134 634.959L595.835 641.686L564.508 601.311L581.184 591.383L607.134 634.959Z" fill="#A0616A"/>
<path d="M616.537 644.195L580.103 665.884L579.829 665.423C578.72 663.561 577.989 661.499 577.677 659.355C577.365 657.21 577.479 655.025 578.012 652.925C578.544 650.824 579.486 648.849 580.782 647.112C582.078 645.376 583.704 643.911 585.566 642.802L585.567 642.802L607.819 629.555L616.537 644.195Z" fill="#2F2E41"/>
<path d="M455.359 630.804C446.549 527.089 441.308 430.739 473.512 391.434L473.761 391.13L527.958 412.805L528.048 412.999C528.23 413.397 546.255 453.038 542.05 479.701L555.419 541.184L599.007 614.156C599.358 614.744 599.58 615.399 599.658 616.079C599.737 616.758 599.67 617.447 599.462 618.099C599.254 618.751 598.909 619.351 598.452 619.86C597.994 620.369 597.434 620.774 596.807 621.05L577.865 629.383C576.796 629.848 575.595 629.912 574.483 629.564C573.37 629.217 572.42 628.48 571.806 627.489L524.39 550.185L497.608 490.892C497.462 490.57 497.215 490.305 496.904 490.138C496.593 489.97 496.235 489.91 495.887 489.966C495.538 490.022 495.217 490.191 494.974 490.447C494.731 490.704 494.579 491.033 494.541 491.384L479.696 630.91C479.572 632.095 479.012 633.193 478.126 633.99C477.239 634.787 476.088 635.228 474.896 635.226H460.17C458.962 635.219 457.8 634.762 456.91 633.944C456.02 633.127 455.467 632.007 455.359 630.804Z" fill="#2F2E41"/>
<path d="M473.695 392.257L473.437 392.133L473.396 391.849C471.372 377.682 473.768 361.94 480.519 345.062C483.846 336.802 490.031 330.011 497.946 325.928C505.861 321.845 514.98 320.74 523.642 322.816C528.631 324.045 533.311 326.297 537.384 329.429C541.457 332.56 544.836 336.504 547.305 341.009C549.743 345.469 551.228 350.385 551.666 355.448C552.104 360.511 551.486 365.61 549.85 370.422C541.34 395.303 530.3 418.584 530.19 418.816L529.959 419.302L473.695 392.257Z" fill="#0069E4"/>
<path d="M414.563 356.968C415.868 355.938 417.376 355.195 418.988 354.789C420.6 354.382 422.28 354.32 423.918 354.608C425.555 354.895 427.114 355.526 428.491 356.457C429.868 357.389 431.032 358.601 431.908 360.014C432.183 360.463 432.427 360.93 432.637 361.413L484.075 371.807L497.771 339.629C498.295 338.4 499.056 337.286 500.012 336.352C500.968 335.419 502.1 334.684 503.342 334.19C504.584 333.696 505.911 333.453 507.247 333.475C508.584 333.497 509.902 333.784 511.127 334.318C512.352 334.852 513.459 335.624 514.384 336.589C515.309 337.553 516.033 338.691 516.516 339.937C516.998 341.183 517.229 342.513 517.195 343.848C517.161 345.184 516.862 346.5 516.317 347.719L496.247 392.581L496.191 392.677C495.028 394.268 493.382 395.441 491.498 396.023C489.615 396.604 487.594 396.563 485.735 395.905L429.042 375.592C428.738 375.83 428.421 376.051 428.093 376.256C426.679 377.131 425.097 377.698 423.449 377.92C421.801 378.141 420.125 378.012 418.53 377.54C416.936 377.069 415.459 376.265 414.197 375.184C412.934 374.102 411.915 372.765 411.205 371.262C411.06 370.958 410.93 370.651 410.814 370.341C409.95 368.001 409.847 365.448 410.521 363.047C411.194 360.646 412.609 358.518 414.563 356.968Z" fill="#A0616A"/>
<path d="M614.991 314.745C612.453 310.25 608.756 306.132 603.868 304.47C597.556 302.324 590.721 304.609 584.231 306.135C579.231 307.31 574.007 308.03 568.966 307.038C563.927 306.046 559.065 303.113 556.772 298.518C553.399 291.757 556.241 283.696 556.035 276.143C555.93 272.032 554.892 267.998 553.001 264.346C551.11 260.694 548.414 257.519 545.117 255.061C541.819 252.602 538.007 250.923 533.967 250.152C529.926 249.38 525.764 249.536 521.792 250.607C515.578 248.814 509.951 248.648 506.107 253.425C501.271 253.425 496.633 255.345 493.213 258.765C489.793 262.184 487.872 266.821 487.872 271.657H505.309C504.482 276.102 505.427 280.694 507.941 284.452C511.019 288.974 516.371 292.244 517.402 297.616C518.4 302.821 514.861 307.76 511.149 311.544C507.437 315.328 503.131 319.077 501.972 324.249C501.262 328.175 502.068 332.224 504.228 335.579C506.384 338.893 509.06 341.839 512.151 344.305C526.08 356.235 542.634 364.703 560.461 369.015C573.016 372.037 586.748 372.82 598.402 367.261C603.065 365.037 607.22 361.878 610.609 357.981C613.999 354.083 616.551 349.531 618.107 344.606C619.662 339.681 620.189 334.489 619.653 329.352C619.117 324.215 617.53 319.243 614.991 314.745Z" fill="#2F2E41"/>
<path d="M618.927 667H415.121C414.837 667 414.564 666.887 414.363 666.686C414.162 666.485 414.049 666.212 414.049 665.927C414.049 665.643 414.162 665.37 414.363 665.169C414.564 664.968 414.837 664.855 415.121 664.855H618.927C619.212 664.855 619.485 664.968 619.686 665.169C619.887 665.37 620 665.643 620 665.927C620 666.212 619.887 666.485 619.686 666.686C619.485 666.887 619.212 667 618.927 667Z" fill="#CCCCCC"/>
</svg>
