<svg width="376" height="335" viewBox="0 0 376 335" fill="none" xmlns="http://www.w3.org/2000/svg">
<g clip-path="url(#clip0)">
<path d="M270.545 300.728H86.0986C79.8438 300.721 73.8472 298.232 69.4244 293.806C65.0016 289.381 62.5138 283.381 62.5067 277.123V60.3907C62.5138 54.1325 65.0016 48.1327 69.4244 43.7076C73.8472 39.2824 79.8438 36.7932 86.0986 36.7861H257.696L294.137 65.8476V277.123C294.13 283.381 291.642 289.381 287.219 293.806C282.796 298.232 276.8 300.721 270.545 300.728Z" fill="#E6E6E6"/>
<path d="M86.0986 43.5815C81.6444 43.5866 77.3741 45.3592 74.2245 48.5104C71.0749 51.6617 69.3033 55.9343 69.2982 60.3908V277.123C69.3033 281.58 71.0749 285.853 74.2245 289.004C77.3741 292.155 81.6444 293.928 86.0986 293.933H270.545C274.999 293.928 279.269 292.155 282.419 289.004C285.568 285.853 287.34 281.58 287.345 277.123V69.1213L255.32 43.5815H86.0986Z" fill="white"/>
<path d="M232.061 106.602H108.377C107.861 106.602 107.349 106.501 106.872 106.304C106.395 106.106 105.961 105.817 105.596 105.452C105.231 105.087 104.941 104.653 104.743 104.176C104.546 103.699 104.444 103.187 104.444 102.671C104.444 102.154 104.546 101.643 104.743 101.166C104.941 100.688 105.231 100.255 105.596 99.8897C105.961 99.5247 106.395 99.2352 106.872 99.038C107.349 98.8407 107.861 98.7394 108.377 98.74H232.061C233.103 98.74 234.102 99.1541 234.839 99.8913C235.575 100.628 235.989 101.628 235.989 102.671C235.989 103.713 235.575 104.713 234.839 105.45C234.102 106.187 233.103 106.602 232.061 106.602Z" fill="#CCCCCC"/>
<path d="M248.266 119.868H108.377C107.861 119.868 107.35 119.766 106.873 119.569C106.397 119.371 105.964 119.082 105.599 118.717C105.234 118.352 104.945 117.918 104.747 117.441C104.55 116.964 104.448 116.453 104.448 115.937C104.448 115.421 104.55 114.91 104.747 114.433C104.945 113.956 105.234 113.523 105.599 113.158C105.964 112.793 106.397 112.503 106.873 112.306C107.35 112.108 107.861 112.006 108.377 112.006H248.266C248.782 112.006 249.293 112.108 249.77 112.306C250.247 112.503 250.68 112.793 251.044 113.158C251.409 113.523 251.699 113.956 251.896 114.433C252.094 114.91 252.195 115.421 252.195 115.937C252.195 116.453 252.094 116.964 251.896 117.441C251.699 117.918 251.409 118.352 251.044 118.717C250.68 119.082 250.247 119.371 249.77 119.569C249.293 119.766 248.782 119.868 248.266 119.868Z" fill="#CCCCCC"/>
<path d="M232.061 166.055H108.377C107.861 166.055 107.349 165.954 106.872 165.757C106.395 165.559 105.961 165.27 105.596 164.905C105.231 164.54 104.941 164.106 104.743 163.629C104.546 163.152 104.444 162.64 104.444 162.124C104.444 161.607 104.546 161.096 104.743 160.619C104.941 160.141 105.231 159.708 105.596 159.343C105.961 158.978 106.395 158.688 106.872 158.491C107.349 158.294 107.861 158.193 108.377 158.193H232.061C233.103 158.193 234.102 158.607 234.839 159.344C235.575 160.082 235.989 161.081 235.989 162.124C235.989 163.166 235.575 164.166 234.839 164.903C234.102 165.641 233.103 166.055 232.061 166.055Z" fill="#D91504"/>
<path d="M248.266 179.321H108.377C107.861 179.321 107.35 179.219 106.873 179.022C106.397 178.824 105.964 178.535 105.599 178.17C105.234 177.805 104.945 177.371 104.747 176.895C104.55 176.418 104.448 175.906 104.448 175.39C104.448 174.874 104.55 174.363 104.747 173.886C104.945 173.409 105.234 172.976 105.599 172.611C105.964 172.246 106.397 171.956 106.873 171.759C107.35 171.561 107.861 171.459 108.377 171.459H248.266C248.782 171.459 249.293 171.561 249.77 171.759C250.247 171.956 250.68 172.246 251.044 172.611C251.409 172.976 251.699 173.409 251.896 173.886C252.094 174.363 252.195 174.874 252.195 175.39C252.195 175.906 252.094 176.418 251.896 176.895C251.699 177.371 251.409 177.805 251.044 178.17C250.68 178.535 250.247 178.824 249.77 179.022C249.293 179.219 248.782 179.321 248.266 179.321Z" fill="#CCCCCC"/>
<path d="M232.061 225.508H108.377C107.335 225.508 106.336 225.094 105.599 224.357C104.862 223.619 104.448 222.62 104.448 221.577C104.448 220.535 104.862 219.535 105.599 218.798C106.336 218.06 107.335 217.646 108.377 217.646H232.061C233.103 217.646 234.102 218.06 234.839 218.798C235.575 219.535 235.989 220.535 235.989 221.577C235.989 222.62 235.575 223.619 234.839 224.357C234.102 225.094 233.103 225.508 232.061 225.508Z" fill="#CCCCCC"/>
<path d="M248.266 238.774H108.377C107.861 238.775 107.349 238.674 106.872 238.476C106.395 238.279 105.961 237.99 105.596 237.624C105.231 237.259 104.941 236.826 104.743 236.349C104.546 235.871 104.444 235.36 104.444 234.843C104.444 234.327 104.546 233.815 104.743 233.338C104.941 232.861 105.231 232.427 105.596 232.062C105.961 231.697 106.395 231.408 106.872 231.211C107.349 231.013 107.861 230.912 108.377 230.913H248.266C249.308 230.913 250.308 231.327 251.044 232.064C251.781 232.801 252.195 233.801 252.195 234.843C252.195 235.886 251.781 236.886 251.044 237.623C250.308 238.36 249.308 238.774 248.266 238.774Z" fill="#CCCCCC"/>
<path d="M293.427 66.783H264.882C263.85 66.783 262.828 66.5796 261.875 66.1845C260.922 65.7895 260.056 65.2104 259.326 64.4804C258.596 63.7503 258.018 62.8837 257.623 61.9299C257.228 60.9761 257.025 59.9538 257.025 58.9214V37.8268C257.025 37.7344 257.051 37.644 257.1 37.5657C257.149 37.4875 257.219 37.4247 257.302 37.3845C257.385 37.3442 257.478 37.3283 257.569 37.3384C257.661 37.3485 257.748 37.3843 257.821 37.4417L293.732 65.9065C293.812 65.9698 293.871 66.0565 293.899 66.1545C293.928 66.2524 293.925 66.3568 293.891 66.4532C293.858 66.5495 293.795 66.633 293.712 66.6921C293.629 66.7512 293.529 66.783 293.427 66.783Z" fill="#E6E6E6"/>
<path d="M114.222 55.4246C114.222 66.0955 111.059 76.5268 105.134 85.3994C99.2084 94.2719 90.7866 101.187 80.9332 105.271C71.0798 109.354 60.2374 110.423 49.7771 108.341C39.3168 106.259 29.7084 101.121 22.1669 93.5752C14.6255 86.0297 9.48968 76.4162 7.409 65.9503C5.32832 55.4844 6.3962 44.6363 10.4776 34.7776C14.559 24.919 21.4706 16.4926 30.3385 10.5642C39.2063 4.63573 49.632 1.47144 60.2972 1.47144C74.5975 1.47595 88.3107 7.16174 98.4225 17.2789C108.534 27.3961 114.217 41.1167 114.222 55.4246Z" fill="white"/>
<path d="M85.2202 64.6566C84.6312 99.1625 33.3317 99.1571 32.7477 64.6555C33.3367 30.1507 84.6362 30.1561 85.2202 64.6566Z" fill="#C28890"/>
<path d="M57.9425 75.3666L57.9152 74.3857C64.6726 75.2884 66.1279 66.9091 59.3131 70.0417L60.8687 58.6672L61.8401 58.8004L60.5168 68.4759C67.6923 67.4073 65.0382 76.347 57.9425 75.3666Z" fill="#2F2E41"/>
<path d="M71.9243 59.6348H66.6439V60.6157H71.9243V59.6348Z" fill="#2F2E41"/>
<path d="M55.2568 59.6348H49.9763V60.6157H55.2568V59.6348Z" fill="#2F2E41"/>
<path d="M67.4888 101.358C68.5183 94.4081 60.3856 95.7815 56.0813 95.7128C55.3873 95.715 54.7026 95.872 54.0769 96.1724C53.4513 96.4728 52.9005 96.9091 52.4647 97.4495C52.0288 97.9899 51.719 98.6207 51.5577 99.296C51.3964 99.9714 51.3877 100.674 51.5322 101.353C48.2008 102.384 45.1158 104.086 42.4679 106.356C53.6267 110.249 65.752 110.384 76.9943 106.739C74.2536 104.276 71.01 102.44 67.4888 101.358Z" fill="#2F2E41"/>
<path d="M46.6491 52.2407C51.5113 49.4292 57.4078 51.5862 62.4302 52.7654C71.9593 55.6963 85.3221 52.0262 86.4808 40.6689C87.6867 30.1064 73.2453 24.2195 68.6294 34.7323L69.9734 34.5565C55.0037 12.2973 28.9641 13.1415 29.1354 43.744C29.0799 44.6894 30.5507 44.6862 30.6057 43.7434C30.0546 25.7099 41.9831 13.3827 58.845 24.9718C62.7038 27.7889 65.8263 31.5199 68.7036 35.2992C70.4597 37.2682 70.8413 28.7883 79.2462 31.0094C88.4961 34.5949 85.4779 47.847 77.2101 50.7562C66.9947 55.978 55.931 45.8536 45.9068 50.9695C45.7454 51.0715 45.6299 51.2322 45.5847 51.4177C45.5394 51.6032 45.568 51.799 45.6643 51.9639C45.7605 52.1288 45.917 52.2498 46.1008 52.3014C46.2845 52.3531 46.4811 52.3313 46.6491 52.2407V52.2407Z" fill="#2F2E41"/>
<path d="M60.2973 110.849C46.3718 110.837 32.9624 105.574 22.7435 96.1088C12.5247 86.6436 6.2473 73.6722 5.16339 59.7816C4.07949 45.8909 8.26871 32.1019 16.8956 21.1645C25.5224 10.2272 37.9528 2.94544 51.7078 0.771457C65.4627 -1.40252 79.5313 1.69108 91.1076 9.43527C102.684 17.1795 110.917 29.0051 114.166 42.5537C117.414 56.1023 115.438 70.3781 108.633 82.534C101.828 94.6898 90.6928 103.832 77.4489 108.138C71.9102 109.941 66.1216 110.855 60.2973 110.849ZM60.2973 2.9428C49.9208 2.94133 39.777 6.01869 31.1486 11.7857C22.5203 17.5527 15.7951 25.7503 11.8235 35.3418C7.85189 44.9332 6.81235 55.4877 8.83634 65.6702C10.8603 75.8528 15.8569 85.2062 23.1942 92.5474C30.5315 99.8886 39.8798 104.888 50.057 106.913C60.2342 108.938 70.783 107.898 80.3693 103.924C89.9556 99.9505 98.1489 93.2217 103.913 84.5887C109.677 75.9558 112.752 65.8065 112.751 55.4245C112.735 41.5103 107.204 28.1705 97.3703 18.3317C87.5367 8.49289 74.204 2.95853 60.2973 2.9428Z" fill="#CCCCCC"/>
<path d="M374.529 166.274C374.529 177.663 370.928 188.76 364.242 197.978C357.555 207.195 348.125 214.059 337.302 217.588C336.978 217.691 336.655 217.794 336.326 217.892C334.924 218.324 333.503 218.692 332.056 219.006C329.439 219.574 326.783 219.943 324.11 220.109C322.948 220.188 321.78 220.227 320.605 220.227C314.534 220.233 308.506 219.211 302.776 217.206C302.609 217.147 302.442 217.088 302.281 217.029C292.996 213.674 284.81 207.834 278.615 200.145C272.419 192.455 268.452 183.212 267.145 173.423C265.838 163.633 267.242 153.672 271.203 144.626C275.164 135.579 281.531 127.794 289.61 122.119C297.689 116.443 307.17 113.095 317.019 112.44C326.869 111.784 336.709 113.846 345.468 118.4C354.228 122.954 361.569 129.827 366.694 138.269C371.818 146.71 374.528 156.397 374.529 166.274Z" fill="white"/>
<path d="M319.313 202.02C333.803 202.02 345.549 190.267 345.549 175.77C345.549 161.272 333.803 149.52 319.313 149.52C304.823 149.52 293.077 161.272 293.077 175.77C293.077 190.267 304.823 202.02 319.313 202.02Z" fill="#A0616A"/>
<path d="M320.845 189.913L320.872 188.932C319.048 188.882 317.44 188.767 316.232 187.884C315.889 187.619 315.607 187.284 315.406 186.901C315.205 186.517 315.088 186.095 315.064 185.663C315.043 185.399 315.083 185.133 315.181 184.887C315.279 184.641 315.432 184.42 315.629 184.243C316.431 183.565 317.722 183.785 318.663 184.216L319.474 184.588L317.918 173.214L316.947 173.347L318.27 183.023C316.992 182.647 315.808 182.808 314.996 183.494C314.685 183.766 314.441 184.106 314.282 184.489C314.124 184.871 314.056 185.285 314.085 185.697C314.113 186.278 314.268 186.846 314.539 187.36C314.81 187.875 315.191 188.324 315.653 188.676C317.206 189.811 319.223 189.868 320.845 189.913Z" fill="#2F2E41"/>
<path d="M312.143 174.181H306.863V175.162H312.143V174.181Z" fill="#2F2E41"/>
<path d="M328.811 174.181H323.53V175.162H328.811V174.181Z" fill="#2F2E41"/>
<path d="M326.767 212.467C326.837 212.145 326.873 211.816 326.875 211.487C326.873 210.251 326.382 209.067 325.509 208.194C324.636 207.32 323.452 206.829 322.218 206.827H315.355C314.12 206.828 312.936 207.319 312.063 208.193C311.19 209.066 310.699 210.251 310.698 211.487C310.697 211.818 310.733 212.149 310.805 212.472C308.215 213.289 305.766 214.502 303.545 216.068C303.114 216.367 302.687 216.691 302.281 217.029C302.442 217.088 302.609 217.147 302.776 217.206C308.506 219.211 314.534 220.233 320.605 220.227C321.781 220.227 322.95 220.188 324.11 220.109C326.783 219.943 329.439 219.574 332.057 219.006C333.503 218.692 334.924 218.324 336.326 217.892C333.553 215.437 330.296 213.589 326.767 212.467Z" fill="#2F2E41"/>
<path d="M325.885 219.486C325.248 219.533 324.636 219.748 324.11 220.109C326.783 219.943 329.439 219.574 332.056 219.006L325.885 219.486Z" fill="#2F2E41"/>
<path d="M343.108 169.534L297.53 152.851C297.288 152.763 297.066 152.627 296.876 152.453C296.687 152.279 296.533 152.069 296.425 151.835C296.317 151.601 296.255 151.348 296.244 151.091C296.234 150.834 296.274 150.577 296.362 150.335L296.516 149.605C300.076 139.87 311.874 133.743 321.604 137.305L335.629 142.438C345.359 146 349.588 157.527 346.029 167.263L345.623 168.365C345.534 168.607 345.399 168.829 345.225 169.019C345.051 169.209 344.841 169.362 344.607 169.471C344.374 169.579 344.121 169.641 343.864 169.651C343.606 169.662 343.349 169.622 343.108 169.534Z" fill="#2F2E41"/>
<path d="M345.563 170.459C282.036 172.805 276.485 164.818 295.841 152.26L299.948 144.7L347.009 161.867L345.563 170.459Z" fill="#2F2E41"/>
<path d="M333.106 141.241C333.457 140.074 331.955 138.59 329.751 137.927C327.547 137.264 325.476 137.673 325.125 138.841C324.775 140.008 326.277 141.492 328.481 142.155C330.685 142.817 332.756 142.408 333.106 141.241Z" fill="#2F2E41"/>
<path d="M320.605 221.698C314.368 221.705 308.176 220.656 302.289 218.594L301.778 218.412C289.448 213.954 279.098 205.264 272.568 193.889C266.039 182.514 263.754 169.191 266.119 156.288C268.484 143.386 275.346 131.741 285.485 123.425C295.624 115.108 308.382 110.659 321.491 110.869C334.6 111.079 347.209 115.934 357.077 124.57C366.945 133.207 373.431 145.065 375.383 158.037C377.334 171.008 374.624 184.252 367.735 195.412C360.845 206.572 350.223 214.926 337.757 218.988C337.408 219.099 337.08 219.203 336.747 219.302C335.355 219.731 333.877 220.116 332.368 220.444C329.678 221.027 326.948 221.406 324.2 221.578C323.02 221.658 321.807 221.698 320.605 221.698ZM320.605 113.792C308.262 113.794 296.314 118.15 286.864 126.095C277.414 134.039 271.066 145.063 268.937 157.228C266.809 169.393 269.035 181.919 275.225 192.604C281.415 203.288 291.172 211.447 302.78 215.645L303.266 215.818C308.838 217.769 314.701 218.762 320.605 218.756C321.742 218.756 322.887 218.717 324.011 218.641C326.612 218.479 329.198 218.12 331.746 217.567C333.173 217.258 334.569 216.894 335.894 216.486C336.222 216.388 336.533 216.289 336.845 216.19C348.718 212.32 358.823 204.34 365.342 193.684C371.861 183.028 374.368 170.395 372.41 158.055C370.453 145.716 364.161 134.479 354.665 126.366C345.169 118.252 333.092 113.794 320.605 113.792Z" fill="#CCCCCC"/>
<path d="M1.47068 279.575C1.46128 286.677 2.85737 293.709 5.57839 300.268C8.29941 306.827 12.2915 312.782 17.3244 317.789C17.7461 318.206 18.1775 318.623 18.6136 319.03C21.2417 321.486 24.1092 323.673 27.1731 325.558C27.7612 325.921 28.3496 326.269 28.9525 326.608C32.0511 328.355 35.3157 329.789 38.6981 330.89C39.2814 331.081 39.8746 331.262 40.4677 331.429C51.2197 334.514 62.6628 334.192 73.2245 330.507C73.4303 330.434 73.6362 330.36 73.8372 330.286C83.1087 326.912 91.2772 321.057 97.4535 313.359C103.63 305.662 107.577 296.416 108.866 286.63C110.155 276.843 108.737 266.89 104.764 257.855C100.792 248.819 94.4183 241.047 86.3372 235.384C78.2562 229.721 68.7774 226.385 58.9326 225.738C49.0879 225.091 39.2545 227.159 30.5029 231.716C21.7512 236.273 14.4167 243.145 9.29776 251.584C4.17879 260.022 1.47153 269.704 1.47068 279.575Z" fill="white"/>
<path d="M44.0073 306.02C44.0334 310.2 42.4935 314.238 39.6913 317.338C36.9187 320.383 32.7909 322.402 28.6255 321.567C24.7899 320.797 21.673 317.443 22.0619 313.386C22.1264 312.507 22.3817 311.652 22.81 310.882C23.2383 310.112 23.8293 309.445 24.5418 308.927C25.2543 308.409 26.0711 308.052 26.9354 307.883C27.7997 307.713 28.6906 307.734 29.546 307.944C33.1896 308.89 34.6414 314.144 31.6052 316.61C30.8766 317.202 29.8299 316.167 30.5652 315.569C32.5724 313.939 31.9523 310.373 29.5297 309.478C26.7091 308.437 23.7207 310.676 23.5178 313.562C23.2773 316.982 25.8965 319.559 29.1084 320.165C32.5831 320.821 36.0281 319.042 38.3825 316.586C41.0808 313.734 42.5697 309.947 42.5366 306.02C42.5432 305.829 42.6236 305.649 42.7608 305.516C42.898 305.383 43.0812 305.309 43.272 305.309C43.4627 305.309 43.646 305.383 43.7831 305.516C43.9203 305.649 44.0007 305.829 44.0073 306.02L44.0073 306.02Z" fill="#2F2E41"/>
<path d="M58.3677 315.374C72.8576 315.374 84.604 303.622 84.604 289.124C84.604 274.626 72.8576 262.874 58.3677 262.874C43.8779 262.874 32.1315 274.626 32.1315 289.124C32.1315 303.622 43.8779 315.374 58.3677 315.374Z" fill="#E6ACB4"/>
<path d="M57.0255 300.325L56.9982 299.344C58.8221 299.293 60.4302 299.178 61.6385 298.295C61.9811 298.031 62.2627 297.695 62.4641 297.312C62.6656 296.929 62.7821 296.506 62.8059 296.074C62.8271 295.81 62.7872 295.544 62.6892 295.298C62.5912 295.052 62.4377 294.832 62.2408 294.654C61.4387 293.977 60.148 294.196 59.2073 294.628L58.3961 295L59.9517 283.625L60.9231 283.758L59.5998 293.434C60.8781 293.058 62.0624 293.22 62.8737 293.905C63.1851 294.177 63.4295 294.518 63.5877 294.9C63.7459 295.282 63.8137 295.696 63.7856 296.109C63.757 296.69 63.6018 297.257 63.3308 297.772C63.0598 298.286 62.6796 298.735 62.2168 299.087C60.6643 300.223 58.6467 300.279 57.0255 300.325Z" fill="#2F2E41"/>
<path d="M71.0073 284.593H65.7269V285.574H71.0073V284.593Z" fill="#2F2E41"/>
<path d="M54.3398 284.593H49.0594V285.574H54.3398V284.593Z" fill="#2F2E41"/>
<path d="M40.4677 331.429C51.2197 334.514 62.6628 334.192 73.2245 330.507C73.4303 330.434 73.6362 330.36 73.8372 330.286C71.3485 328.366 68.5335 326.91 65.5279 325.99C65.7405 325.236 65.7371 324.437 65.5181 323.684C65.2206 322.731 64.6234 321.899 63.8152 321.312C63.007 320.725 62.0311 320.415 61.0326 320.428H54.6401C53.6433 320.414 52.6689 320.723 51.8622 321.31C51.0556 321.896 50.46 322.727 50.1644 323.68C49.9454 324.434 49.942 325.234 50.1546 325.99C47.5071 326.801 45.0052 328.028 42.7424 329.624C42.2864 329.943 41.8453 330.277 41.419 330.625C41.0953 330.885 40.7767 331.155 40.4677 331.429Z" fill="#2F2E41"/>
<path d="M78.9209 286.339C78.9209 290.763 81.0975 294.432 83.9261 295.07C84.2141 295.134 84.5084 295.167 84.8036 295.168C88.0439 295.168 90.6862 291.21 90.6862 286.339C90.6862 283.514 89.7989 280.998 88.4213 279.384C87.9432 278.805 87.355 278.327 86.6907 277.976C86.1081 277.672 85.4608 277.512 84.8036 277.51C83.9007 277.522 83.0242 277.817 82.2984 278.354C80.3032 279.767 78.9209 282.813 78.9209 286.339Z" fill="#3F3D56"/>
<path d="M26.4672 286.339C26.4672 290.145 28.075 293.392 30.3301 294.633C30.9474 294.979 31.6422 295.163 32.3498 295.168C32.5072 295.168 32.6643 295.158 32.8204 295.138C35.84 294.78 38.2325 290.974 38.2325 286.339C38.2325 282.626 36.6979 279.443 34.5312 278.143C33.8759 277.736 33.1212 277.517 32.3498 277.51C31.6925 277.512 31.0452 277.672 30.4624 277.976C29.7965 278.328 29.2067 278.808 28.727 279.389C27.3543 281.003 26.4672 283.519 26.4672 286.339Z" fill="#3F3D56"/>
<path d="M30.6969 293.787C30.8137 293.787 30.9287 293.759 31.0325 293.706C31.1364 293.652 31.226 293.575 31.2941 293.48C31.3622 293.385 31.4067 293.275 31.424 293.16C31.4414 293.044 31.431 292.926 31.3938 292.816C29.9884 288.634 29.5657 284.185 30.1584 279.813C30.7511 275.442 32.3433 271.266 34.8112 267.61C37.2792 263.954 40.5564 260.917 44.3883 258.735C48.2201 256.552 52.5033 255.283 56.9051 255.026C61.3068 254.769 65.7084 255.532 69.7679 257.253C73.8274 258.975 77.4355 261.61 80.3116 264.954C83.1877 268.298 85.2545 272.26 86.3513 276.533C87.4481 280.806 87.5453 285.274 86.6355 289.591C86.6156 289.685 86.6145 289.783 86.6322 289.878C86.65 289.973 86.6862 290.064 86.739 290.144C86.7917 290.225 86.8598 290.295 86.9395 290.35C87.0192 290.404 87.1088 290.443 87.2033 290.463C87.2978 290.483 87.3953 290.484 87.4902 290.466C87.5851 290.448 87.6756 290.412 87.7565 290.359C87.8374 290.306 87.9072 290.238 87.9617 290.159C88.0163 290.079 88.0546 289.989 88.0746 289.895C89.0317 285.356 88.93 280.658 87.7772 276.165C86.6245 271.673 84.4517 267.507 81.4279 263.991C78.4041 260.475 74.6107 257.704 70.3425 255.894C66.0743 254.083 61.4464 253.282 56.8184 253.552C52.1904 253.823 47.687 255.157 43.6583 257.452C39.6297 259.747 36.1842 262.941 33.5897 266.784C30.9952 270.628 29.3217 275.019 28.6991 279.616C28.0766 284.212 28.5218 288.89 30.0002 293.286C30.0494 293.432 30.1431 293.559 30.2681 293.649C30.393 293.738 30.543 293.787 30.6969 293.787Z" fill="#3F3D56"/>
<path d="M71.5475 272.116C72.5864 273.535 72.0743 275.447 70.9797 276.67C69.5553 278.262 67.284 278.363 65.3118 278.067C63.0988 277.736 60.7515 276.698 58.511 277.397C56.6014 277.993 55.2392 279.726 53.2553 280.161C51.4959 280.547 49.392 280.036 48.7752 278.16C48.4788 277.258 49.8985 276.872 50.1933 277.769C50.5924 278.983 52.3153 278.959 53.302 278.622C54.8839 278.084 56.103 276.773 57.6578 276.147C59.4909 275.409 61.4797 275.742 63.346 276.162C65.1051 276.559 67.1295 277.146 68.8819 276.406C70.1786 275.858 71.2104 274.133 70.2776 272.859C69.7177 272.094 70.9933 271.359 71.5475 272.116Z" fill="#2F2E41"/>
<path d="M55.395 335C50.2075 335.004 45.0452 334.278 40.06 332.843C39.4742 332.678 38.8587 332.491 38.2404 332.288C34.7668 331.157 31.414 329.684 28.231 327.89C27.6341 327.555 27.0348 327.202 26.4012 326.811C23.2546 324.874 20.3093 322.628 17.6094 320.105C17.164 319.689 16.7225 319.262 16.291 318.836C7.80001 310.366 2.28532 299.367 0.57538 287.493C-1.13456 275.619 1.05259 263.511 6.80826 252.987C12.5639 242.463 21.5773 234.091 32.4944 229.13C43.4114 224.17 55.6426 222.887 67.3504 225.475C79.0583 228.064 89.6105 234.383 97.4221 243.484C105.234 252.586 109.882 263.978 110.67 275.948C111.458 287.919 108.343 299.822 101.791 309.87C95.2403 319.918 85.6074 327.567 74.3399 331.669C74.1376 331.743 73.9282 331.818 73.7189 331.893C67.83 333.956 61.6345 335.007 55.395 335ZM55.395 227.094C45.0135 227.094 34.8655 230.177 26.236 235.951C17.6065 241.725 10.8836 249.932 6.91835 259.532C2.95314 269.131 1.92401 279.692 3.96126 289.877C5.99852 300.062 11.0105 309.414 18.3627 316.747C18.7696 317.149 19.1909 317.556 19.6169 317.954C22.174 320.343 24.9634 322.471 27.9435 324.305C28.5438 324.675 29.1087 325.008 29.672 325.324C32.6866 327.023 35.8622 328.419 39.1523 329.49C39.7345 329.681 40.3097 329.856 40.8654 330.012C51.3269 333.016 62.4614 332.704 72.7383 329.118L73.3324 328.904C84.9214 324.684 94.6536 316.513 100.82 305.827C106.987 295.14 109.193 282.622 107.052 270.47C104.911 258.318 98.5596 247.309 89.1128 239.377C79.6659 231.444 67.7279 227.095 55.395 227.094Z" fill="#CCCCCC"/>
</g>
<defs>
<clipPath id="clip0">
<rect width="376" height="335" fill="white"/>
</clipPath>
</defs>
</svg>
