<svg width="140" height="175" viewBox="0 0 140 175" fill="none" xmlns="http://www.w3.org/2000/svg">
<path d="M30.0417 87.5H66.5V102.083H30.0417V87.5ZM102.958 58.3333H30.0417V72.9167H102.958V58.3333ZM102.958 29.1667H30.0417V43.75H102.958V29.1667ZM124.833 141.779V175L110.25 160.417L95.6667 175V141.779C90.1057 138.584 85.7573 133.64 83.2987 127.716C80.8401 121.793 80.4094 115.222 82.0735 109.028C83.7376 102.835 87.4032 97.3648 92.4995 93.471C97.5957 89.5772 103.837 87.4779 110.25 87.5C112.715 87.5308 115.166 87.8788 117.542 88.5354V21.875C117.542 19.9411 116.773 18.0865 115.406 16.719C114.039 15.3516 112.184 14.5833 110.25 14.5833H22.75C20.8161 14.5833 18.9615 15.3516 17.594 16.719C16.2266 18.0865 15.4583 19.9411 15.4583 21.875V145.833H81.0833V160.417H0.875V21.875C0.875 16.0734 3.17968 10.5094 7.28204 6.40704C11.3844 2.30468 16.9484 0 22.75 0L110.25 0C116.052 0 121.616 2.30468 125.718 6.40704C129.82 10.5094 132.125 16.0734 132.125 21.875V97.5771C134.981 100.785 137.084 104.59 138.279 108.716C139.475 112.841 139.732 117.181 139.033 121.419C138.334 125.657 136.696 129.685 134.239 133.207C131.782 136.73 128.568 139.659 124.833 141.779ZM124.833 116.667C124.833 113.782 123.978 110.963 122.376 108.565C120.773 106.166 118.496 104.297 115.831 103.193C113.166 102.09 110.234 101.801 107.405 102.364C104.576 102.926 101.978 104.315 99.938 106.355C97.8985 108.394 96.5096 110.993 95.9469 113.822C95.3842 116.65 95.673 119.583 96.7768 122.247C97.8805 124.912 99.7497 127.19 102.148 128.792C104.546 130.395 107.366 131.25 110.25 131.25C114.118 131.25 117.827 129.714 120.562 126.979C123.297 124.244 124.833 120.534 124.833 116.667Z" fill="#003BB2"/>
</svg>
