<svg width="175" height="161" viewBox="0 0 175 161" fill="none" xmlns="http://www.w3.org/2000/svg">
<path d="M102.958 4.92136C98.354 1.93947 92.9855 0.352905 87.5 0.352905C82.0145 0.352905 76.646 1.93947 72.0417 4.92136L0 51.3912L29.1667 70.2037V141.91L31.3031 144.046C31.9885 144.725 48.4677 160.766 87.5 160.766C126.532 160.766 143.011 144.725 143.697 144.046L145.833 141.91V70.2037L160.417 60.7974V138.891H175V51.3912L102.958 4.92136ZM131.25 135.362C118.073 143.253 102.836 147.021 87.5 146.183C72.1645 147.023 56.9282 143.257 43.75 135.369V79.6099L72.0417 97.8391C76.6433 100.828 82.0128 102.419 87.5 102.419C92.9872 102.419 98.3567 100.828 102.958 97.8391L131.25 79.6099V135.362ZM95.0542 85.6037C92.8061 87.066 90.1819 87.8444 87.5 87.8444C84.8181 87.8444 82.1939 87.066 79.9458 85.6037L26.9062 51.3912L79.9458 17.1787C82.1939 15.7163 84.8181 14.9379 87.5 14.9379C90.1819 14.9379 92.8061 15.7163 95.0542 17.1787L148.094 51.3912L95.0542 85.6037Z" fill="#003BB2"/>
</svg>
