<svg width="119" height="111" viewBox="0 0 119 111" fill="none" xmlns="http://www.w3.org/2000/svg">
<path d="M70.0117 4.06724C66.8807 2.03956 63.2302 0.960693 59.5 0.960693C55.7698 0.960693 52.1193 2.03956 48.9883 4.06724L0 35.6667L19.8333 48.4592V97.2195L21.2861 98.6722C21.7522 99.1334 32.958 110.042 59.5 110.042C86.042 110.042 97.2478 99.1334 97.7139 98.6722L99.1667 97.2195V48.4592L109.083 42.063V95.1667H119V35.6667L70.0117 4.06724ZM89.25 92.7669C80.2895 98.1326 69.9287 100.695 59.5 100.125C49.0719 100.696 38.7112 98.1356 29.75 92.7718V54.8555L48.9883 67.2513C52.1175 69.2837 55.7687 70.3654 59.5 70.3654C63.2313 70.3654 66.8825 69.2837 70.0117 67.2513L89.25 54.8555V92.7669ZM64.6368 58.9312C63.1081 59.9256 61.3237 60.4549 59.5 60.4549C57.6763 60.4549 55.8919 59.9256 54.3632 58.9312L18.2963 35.6667L54.3632 12.4022C55.8919 11.4078 57.6763 10.8785 59.5 10.8785C61.3237 10.8785 63.1081 11.4078 64.6368 12.4022L100.704 35.6667L64.6368 58.9312Z" fill="#003BB2"/>
</svg>
