<svg width="89" height="114" viewBox="0 0 89 114" fill="none" xmlns="http://www.w3.org/2000/svg">
<path d="M88.9999 29.6543C89.0068 27.1576 88.4982 24.6844 87.5035 22.3778C86.5088 20.0712 85.0478 17.977 83.205 16.2165L72.1196 5.567C68.4047 2.01323 63.3793 0.0124804 58.1367 0L14.8333 0C10.8993 0 7.12637 1.50133 4.34458 4.17373C1.56279 6.84612 0 10.4707 0 14.25V114H88.9999V29.6543ZM76.2136 22.933C76.4622 23.1922 76.695 23.465 76.9108 23.75H64.2777V11.6138C64.5744 11.8211 64.8584 12.0447 65.1282 12.2835L76.2136 22.933ZM9.88888 104.5V14.25C9.88888 12.9902 10.4098 11.782 11.3371 10.8912C12.2643 10.0004 13.522 9.5 14.8333 9.5H54.3889V33.25H79.1111V104.5H44.5H9.88888ZM24.7222 42.75H64.2777V52.25H24.7222V42.75ZM24.7222 61.75H64.2777V71.25H24.7222V61.75ZM54.4778 79.8665L64.1937 81.605C63.2493 86.5783 59.2245 95 50.1119 95C46.5352 94.997 43.0683 93.8131 40.2922 91.6465C38.7397 90.5873 38.1958 90.25 37.019 90.25C35.249 90.8948 33.6869 91.9761 32.4899 93.385L25.0733 87.1293C28.064 83.6188 32.3367 81.3371 37.019 80.75C40.3062 80.7877 43.4819 81.9002 46.0229 83.904C47.1311 84.9072 48.5894 85.4764 50.1119 85.5C53.1923 85.5 54.463 79.9283 54.4778 79.8665Z" fill="#E3C10B"/>
</svg>
