<svg width="99" height="124" viewBox="0 0 99 124" fill="none" xmlns="http://www.w3.org/2000/svg">
<path d="M21.1667 62H47V72.3333H21.1667V62ZM72.8333 41.3333H21.1667V51.6667H72.8333V41.3333ZM72.8333 20.6667H21.1667V31H72.8333V20.6667ZM88.3333 100.461V124L78 113.667L67.6667 124V100.461C63.7263 98.1967 60.6452 94.6933 58.9031 90.496C57.161 86.2988 56.8558 81.6432 58.0349 77.2544C59.2141 72.8656 61.8114 68.9899 65.4225 66.2309C69.0335 63.4718 73.4556 61.9843 78 62C79.7466 62.0218 81.4831 62.2684 83.1667 62.7337V15.5C83.1667 14.1297 82.6223 12.8156 81.6534 11.8466C80.6844 10.8777 79.3703 10.3333 78 10.3333H16C14.6297 10.3333 13.3156 10.8777 12.3466 11.8466C11.3777 12.8156 10.8333 14.1297 10.8333 15.5V103.333H57.3333V113.667H0.5V15.5C0.5 11.3891 2.13303 7.44666 5.03985 4.53984C7.94666 1.63303 11.8891 0 16 0L78 0C82.1109 0 86.0533 1.63303 88.9602 4.53984C91.867 7.44666 93.5 11.3891 93.5 15.5V69.1403C95.5239 71.4131 97.0138 74.1098 97.8608 77.0328C98.7077 79.9559 98.8902 83.0314 98.3948 86.0341C97.8995 89.0368 96.7389 91.8907 94.998 94.3869C93.2571 96.8831 90.98 98.9583 88.3333 100.461V100.461ZM88.3333 82.6667C88.3333 80.6229 87.7273 78.6251 86.5918 76.9258C85.4564 75.2265 83.8426 73.902 81.9544 73.1199C80.0662 72.3378 77.9885 72.1332 75.9841 72.5319C73.9796 72.9306 72.1384 73.9148 70.6932 75.3599C69.2481 76.805 68.2639 78.6463 67.8652 80.6507C67.4665 82.6552 67.6711 84.7329 68.4532 86.6211C69.2353 88.5092 70.5598 90.1231 72.2591 91.2585C73.9584 92.394 75.9563 93 78 93C80.7406 93 83.3689 91.9113 85.3068 89.9734C87.2446 88.0356 88.3333 85.4072 88.3333 82.6667V82.6667Z" fill="#003BB2"/>
</svg>
