<svg width="137" height="164" viewBox="0 0 137 164" fill="none" xmlns="http://www.w3.org/2000/svg">
<path d="M137 42.6605C137.01 39.0688 136.228 35.5109 134.696 32.1926C133.165 28.8744 130.916 25.8617 128.08 23.329L111.016 8.00867C105.297 2.89623 97.5614 0.0179543 89.4914 0L22.8333 0C16.7775 0 10.9698 2.15982 6.68772 6.00431C2.40565 9.84881 0 15.0631 0 20.5V164H137V42.6605ZM117.318 32.9913C117.7 33.3642 118.059 33.7566 118.391 34.1667H98.9444V16.7075C99.4011 17.0057 99.8382 17.3274 100.253 17.671L117.318 32.9913ZM15.2222 150.333V20.5C15.2222 18.6877 16.0241 16.9496 17.4515 15.6681C18.8788 14.3866 20.8147 13.6667 22.8333 13.6667H83.7222V47.8333H121.778V150.333H68.4999H15.2222ZM38.0555 61.5H98.9444V75.1667H38.0555V61.5ZM38.0555 88.8333H98.9444V102.5H38.0555V88.8333ZM83.8592 114.896L98.815 117.397C97.3613 124.551 91.1658 136.667 77.1386 136.667C71.6329 136.662 66.2962 134.959 62.0229 131.842C59.633 130.319 58.7958 129.833 56.9844 129.833C54.2596 130.761 51.8551 132.316 50.0126 134.343L38.5959 125.344C43.1997 120.294 49.7767 117.011 56.9844 116.167C62.0444 116.221 66.9329 117.821 70.8442 120.704C72.5501 122.147 74.795 122.966 77.1386 123C81.8803 123 83.8363 114.985 83.8592 114.896Z" fill="#E3C10B"/>
</svg>
